<?xml version="1.0" standalone="no"?>
<!DOCTYPE svg PUBLIC "-//W3C//DTD SVG 20010904//EN"
 "http://www.w3.org/TR/2001/REC-SVG-20010904/DTD/svg10.dtd">
<svg version="1.0" xmlns="http://www.w3.org/2000/svg"
 width="512.000000pt" height="512.000000pt" viewBox="0 0 512.000000 512.000000"
 preserveAspectRatio="xMidYMid meet">

<g transform="translate(0.000000,512.000000) scale(0.100000,-0.100000)"
fill="#000000" stroke="none">
<path d="M1896 4652 c-3 -5 48 -57 113 -117 127 -115 286 -285 402 -430 105
-131 207 -289 305 -476 113 -214 109 -208 123 -168 14 40 14 52 1 44 -6 -3
-15 6 -21 22 -47 125 -190 363 -316 526 -172 223 -587 632 -607 599z"/>
<path d="M1220 4521 c0 -5 60 -43 133 -86 564 -331 974 -680 1158 -987 46 -76
68 -130 33 -80 -8 12 -22 22 -31 22 -13 0 -15 -9 -10 -57 3 -32 9 -69 13 -83
7 -24 7 -24 -13 -7 -28 24 -33 22 -33 -18 0 -19 3 -35 6 -35 3 0 50 16 104 36
l98 37 -39 81 c-22 44 -37 87 -34 95 6 15 -21 51 -39 51 -6 1 -33 33 -61 73
-64 91 -270 300 -401 404 -207 167 -454 331 -726 483 -144 81 -158 87 -158 71z"/>
<path d="M291 4136 l-22 -23 74 -89 c40 -49 117 -142 171 -207 l97 -118 30 22
c17 12 28 27 25 35 -10 27 -328 404 -340 404 -7 0 -22 -11 -35 -24z"/>
<path d="M678 3687 c-16 -13 -28 -26 -28 -30 0 -4 160 -201 355 -439 250 -305
353 -437 349 -448 -4 -8 -9 -34 -12 -57 -6 -61 33 -98 110 -108 30 -4 59 -10
64 -13 6 -4 102 -119 214 -255 112 -137 209 -251 216 -254 7 -2 26 3 44 12
l31 16 -29 37 c-17 20 -100 122 -186 227 -86 104 -152 191 -146 193 5 2 68 -6
140 -17 183 -29 192 -29 301 27 101 51 199 94 199 86 0 -2 -22 -43 -50 -92
-46 -82 -121 -255 -135 -314 -5 -19 -3 -28 4 -28 21 0 233 110 305 158 91 60
195 144 276 222 64 62 65 63 40 73 -87 33 -110 46 -156 89 -28 26 -61 70 -74
98 -22 46 -27 51 -54 48 -23 -2 -31 -9 -37 -32 -17 -63 -102 -123 -189 -133
-59 -7 -94 1 -120 27 -20 20 -20 20 -88 -14 l-69 -35 -253 40 c-139 21 -254
40 -255 42 -7 10 -736 897 -738 897 -1 -1 -14 -11 -29 -23z"/>
<path d="M2637 3563 c-4 -3 -7 -27 -6 -52 0 -42 4 -49 42 -80 l42 -34 3 32 c5
46 -61 154 -81 134z"/>
<path d="M2745 3477 c14 -105 -15 -133 -79 -77 l-35 31 37 -80 c20 -44 41 -82
47 -85 11 -4 174 39 183 49 3 2 0 44 -5 92 -6 58 -12 81 -17 68 -33 -90 -56
-92 -103 -10 l-34 60 6 -48z"/>
<path d="M2950 3402 l-1 -37 -15 25 c-8 14 -13 17 -10 7 3 -10 6 -31 6 -47 0
-27 1 -28 43 -23 23 3 44 8 47 10 7 7 -41 91 -56 97 -10 4 -14 -4 -14 -32z"/>
<path d="M3064 3291 c-34 -15 -64 -61 -64 -98 0 -43 46 -93 85 -93 85 0 179
-89 285 -269 l31 -54 -61 6 c-59 5 -63 4 -88 -24 -35 -39 -89 -47 -164 -25
l-55 16 -54 -30 c-30 -16 -60 -30 -67 -30 -7 0 -55 -45 -108 -99 -108 -113
-192 -184 -313 -265 -88 -59 -257 -148 -354 -186 -31 -12 -61 -28 -65 -35 -4
-6 -88 -56 -187 -110 -99 -53 -184 -100 -188 -102 -10 -6 22 -31 98 -77 l60
-37 -50 7 c-27 3 -77 15 -109 26 -32 10 -62 16 -66 11 -4 -4 -39 -77 -76 -162
-51 -114 -75 -155 -91 -162 -16 -6 -23 -17 -23 -34 0 -24 14 -33 155 -101 129
-63 157 -73 175 -64 22 12 25 31 11 59 -7 13 5 50 49 147 l58 129 211 117 211
116 224 -106 225 -107 90 -122 c50 -68 95 -123 101 -123 5 0 17 15 26 33 27
52 70 102 116 132 24 16 43 29 44 30 1 0 4 12 7 26 6 22 -6 44 -67 127 l-75
101 -49 -19 c-27 -11 -74 -22 -103 -25 l-54 -7 66 41 c104 63 104 61 -12 115
l-102 46 7 62 c19 161 115 368 234 502 l33 38 247 -26 c289 -30 325 -31 357
-10 41 27 49 72 25 136 -90 241 -277 491 -413 554 -61 27 -140 39 -173 25z"/>
<path d="M2879 3260 c-194 -40 -369 -106 -411 -152 -44 -50 -33 -125 23 -150
19 -8 33 -27 45 -58 25 -65 107 -143 174 -165 80 -27 169 -23 236 10 64 31
127 99 150 163 10 26 25 56 35 67 10 11 21 32 24 47 6 24 3 29 -20 38 -14 5
-40 10 -56 10 -24 0 -29 -4 -29 -24 0 -28 -33 -72 -60 -81 -17 -5 -20 -15 -20
-62 0 -49 -4 -59 -34 -89 -32 -32 -57 -40 -111 -34 -64 7 -111 72 -102 140 4
33 2 38 -24 47 -38 15 -64 69 -55 116 15 78 112 114 173 63 l28 -24 28 24 c18
15 41 24 63 24 30 0 34 3 34 28 0 15 7 39 14 55 18 33 17 33 -105 7z"/>
<path d="M2730 3062 c0 -39 55 -57 80 -27 19 22 -5 45 -46 45 -26 0 -34 -4
-34 -18z"/>
<path d="M2920 3065 c-10 -12 -10 -18 0 -30 25 -30 80 -12 80 27 0 14 -8 18
-34 18 -18 0 -39 -7 -46 -15z"/>
<path d="M1363 3053 c-29 -2 -53 -6 -53 -9 0 -3 33 -45 72 -94 l73 -89 65 -11
c36 -5 146 -23 245 -39 l180 -28 58 29 c51 25 57 32 57 59 0 16 7 43 15 59
l15 29 -43 5 c-23 3 -65 8 -94 11 -28 3 -100 19 -159 36 -161 45 -255 54 -431
42z"/>
<path d="M1085 3013 c-319 -70 -760 -206 -965 -295 l-52 -23 45 -33 c78 -55
205 -181 266 -263 134 -177 174 -325 134 -490 -15 -65 -15 -71 2 -116 40 -103
183 -218 420 -336 109 -54 377 -167 424 -179 8 -2 23 19 38 55 25 55 25 58 8
77 -10 11 -17 35 -17 57 0 29 7 43 32 66 22 20 55 77 102 180 38 84 81 165 96
180 15 16 84 60 155 98 70 39 127 72 127 74 0 3 -88 112 -195 242 l-196 238
-62 10 c-69 12 -92 22 -124 57 -30 32 -41 84 -31 140 l9 48 -91 110 c-50 60
-95 109 -98 109 -4 -1 -16 -3 -27 -6z"/>
<path d="M2265 3001 c-128 -33 -195 -128 -127 -181 74 -60 272 28 272 121 0
48 -73 79 -145 60z"/>
<path d="M3140 2914 c-6 -14 -10 -29 -10 -33 0 -4 -14 -27 -31 -51 -38 -52
-31 -62 48 -68 48 -3 63 0 86 18 33 26 35 61 6 101 -18 25 -66 59 -84 59 -3 0
-10 -12 -15 -26z"/>
<path d="M2785 2877 c-25 -19 -11 -41 17 -26 18 10 33 9 102 -3 29 -5 30 17 1
30 -35 16 -97 15 -120 -1z"/>
<path d="M2096 2518 c-90 -45 -121 -48 -263 -24 -62 10 -81 10 -75 1 15 -26
265 -325 271 -325 4 0 20 43 36 96 15 53 48 139 72 192 23 53 42 97 40 98 -1
1 -38 -16 -81 -38z"/>
<path d="M3823 2052 c-28 -10 -67 -30 -86 -45 -30 -23 -90 -100 -99 -129 -2
-6 -21 -5 -51 2 -66 17 -163 9 -218 -18 -92 -45 -161 -141 -175 -241 -4 -28
-10 -51 -14 -51 -3 0 -28 -14 -54 -31 -48 -32 -96 -93 -112 -143 -8 -23 -20
-32 -66 -46 -69 -21 -133 -58 -172 -98 l-28 -30 -46 29 c-117 74 -242 63 -344
-30 l-53 -49 35 -15 c19 -8 44 -22 55 -31 18 -15 17 -15 -24 -1 -74 25 -135
15 -199 -32 -69 -52 -98 -175 -58 -252 25 -48 1 -28 -30 25 l-26 44 -266 0
c-423 0 -792 -23 -907 -55 -32 -9 -131 -16 -280 -20 -239 -6 -506 -21 -563
-31 -187 -34 623 -67 2220 -90 l467 -7 26 -27 26 -27 -517 -6 c-284 -3 -521
-10 -526 -15 -12 -12 333 -22 757 -22 l343 0 58 -27 c84 -38 195 -43 284 -13
71 24 106 45 162 98 l38 36 57 -61 c110 -116 242 -179 397 -190 151 -11 311
43 425 144 36 32 56 43 59 34 9 -28 69 -85 107 -102 23 -11 63 -19 95 -19 87
0 152 44 205 137 0 1 21 -5 45 -13 169 -59 337 105 286 278 -31 107 -141 179
-249 163 -44 -7 -44 -7 -51 27 -3 19 -20 56 -36 82 l-30 47 24 37 c67 102 75
275 18 395 -41 89 -120 168 -209 210 -64 30 -75 32 -178 32 -103 0 -114 -2
-177 -32 -72 -34 -145 -95 -179 -150 -12 -19 -20 -35 -18 -37 2 -1 31 -12 64
-25 33 -12 80 -35 105 -51 50 -32 160 -140 143 -140 -6 0 -17 8 -24 17 -29 34
-135 94 -211 118 -144 45 -306 32 -448 -38 -84 -41 -204 -159 -248 -244 -40
-76 -72 -196 -73 -277 -2 -87 -16 -26 -18 74 -2 158 53 294 164 406 116 116
254 173 422 174 l71 0 26 44 c32 54 108 124 169 154 26 13 47 27 47 30 0 4
-14 24 -30 44 -66 80 -205 116 -307 80z"/>
<path d="M2232 1782 l-32 -18 145 -177 c80 -97 149 -177 153 -177 16 0 52 32
52 45 0 15 -267 345 -278 345 -4 -1 -22 -9 -40 -18z"/>
<path d="M2356 1765 c21 -28 29 -33 40 -24 21 17 17 24 -21 42 -49 23 -50 22
-19 -18z"/>
<path d="M2043 1666 l-112 -61 -49 -110 c-40 -90 -49 -118 -45 -151 6 -56 -27
-96 -83 -99 -32 -2 -41 -7 -51 -31 -19 -44 -16 -49 30 -62 23 -6 72 -20 109
-31 l67 -19 57 106 c72 138 129 217 199 278 31 27 72 63 90 79 l35 30 -56 68
c-30 37 -60 66 -67 66 -7 -1 -62 -29 -124 -63z"/>
<path d="M1426 1274 c-52 -117 -58 -166 -26 -207 29 -36 81 -52 125 -37 42 14
50 25 109 153 l45 97 -67 34 c-37 18 -83 40 -103 49 l-36 15 -47 -104z"/>
<path d="M4821 1324 c-65 -46 -57 -145 16 -179 86 -41 172 51 131 140 -23 50
-101 71 -147 39z"/>
<path d="M5011 1153 c-34 -43 -10 -93 45 -93 57 0 82 57 44 98 -28 30 -64 28
-89 -5z"/>
<path d="M1793 1021 c-67 -4 -124 -9 -127 -12 -8 -7 177 -19 301 -19 86 0 93
1 93 20 0 22 -16 23 -267 11z"/>
<path d="M1218 643 c-42 -7 -34 -21 16 -28 56 -9 332 -2 342 8 4 4 4 10 0 15
-8 8 -314 13 -358 5z"/>
</g>
</svg>
