<?xml version="1.0" standalone="no"?>
<!DOCTYPE svg PUBLIC "-//W3C//DTD SVG 20010904//EN"
 "http://www.w3.org/TR/2001/REC-SVG-20010904/DTD/svg10.dtd">
<svg version="1.0" xmlns="http://www.w3.org/2000/svg"
 width="512.000000pt" height="512.000000pt" viewBox="0 0 512.000000 512.000000"
 preserveAspectRatio="xMidYMid meet">

<g transform="translate(0.000000,512.000000) scale(0.100000,-0.100000)"
fill="#000000" stroke="none">
<path d="M1565 4619 c-4 -6 -5 -11 -4 -13 2 -1 47 -29 99 -61 225 -137 435
-301 629 -490 202 -197 334 -363 431 -544 29 -52 100 -118 114 -104 3 4 -15
45 -40 92 -187 347 -524 683 -985 984 -193 125 -236 150 -244 136z"/>
<path d="M4843 4213 l-213 -187 31 -33 32 -32 166 146 c91 81 187 167 213 191
l47 45 -20 29 c-11 15 -26 28 -32 28 -7 0 -108 -85 -224 -187z"/>
<path d="M880 4362 c0 -5 62 -32 138 -60 284 -105 635 -268 848 -393 220 -129
435 -294 535 -412 l55 -64 25 25 24 25 -111 106 c-60 58 -151 135 -202 171
-283 200 -694 402 -1144 561 -141 49 -168 56 -168 41z"/>
<path d="M4278 3717 c-169 -150 -315 -279 -323 -288 -15 -14 -13 -18 18 -42
l35 -26 320 281 321 281 -27 33 c-15 19 -29 34 -32 33 -3 0 -143 -123 -312
-272z"/>
<path d="M2604 3426 c-6 -14 0 -36 22 -90 4 -10 -17 6 -47 38 -31 31 -61 56
-67 56 -20 0 -13 -51 13 -108 14 -30 25 -55 25 -57 0 -1 -17 15 -39 36 -21 22
-44 39 -50 39 -19 0 -12 -57 15 -117 l25 -58 -33 33 c-19 17 -40 32 -47 32
-19 0 -6 -61 26 -123 l25 -50 -29 23 -28 22 -3 -25 c-2 -14 6 -44 18 -67 l21
-41 62 6 c161 17 295 63 401 139 94 67 94 67 56 125 -36 57 -105 131 -121 131
-7 0 -10 -12 -7 -29 4 -27 2 -26 -47 25 -70 74 -98 72 -70 -6 l15 -42 -46 51
c-56 62 -82 78 -90 57z"/>
<path d="M3833 3368 c-12 -6 -105 -113 -207 -238 l-184 -227 -143 -50 -143
-50 -22 26 c-20 23 -29 26 -91 26 -49 -1 -79 -7 -109 -22 -39 -21 -97 -77
-106 -104 -3 -9 -43 -14 -149 -17 -129 -4 -151 -2 -209 18 -72 24 -138 60
-165 90 -10 11 -22 20 -27 20 -5 0 -40 -29 -77 -64 -101 -95 -136 -110 -251
-110 -78 -1 -115 5 -205 31 -174 51 -222 57 -450 57 -229 -1 -384 -15 -680
-65 -194 -32 -585 -116 -598 -128 -4 -4 13 -22 38 -40 138 -99 303 -288 369
-423 62 -126 81 -283 45 -376 -16 -41 -14 -143 5 -200 49 -146 212 -326 471
-519 114 -86 352 -236 365 -231 5 2 41 65 79 141 156 308 260 456 378 542 183
134 593 588 843 935 46 63 83 116 84 117 1 1 9 -5 19 -12 17 -12 13 -21 -64
-127 -145 -200 -305 -394 -495 -604 l-92 -100 28 -260 27 -259 -51 -53 c-36
-38 -57 -51 -70 -48 -29 7 -56 -12 -56 -39 0 -30 253 -265 286 -265 29 0 48
25 41 52 -5 18 10 40 83 114 87 88 104 114 77 114 -17 0 -161 69 -155 75 2 3
42 0 88 -5 47 -5 88 -6 91 -2 4 4 -3 108 -17 232 -31 293 -31 280 3 239 44
-52 74 -59 253 -59 100 0 160 -4 160 -10 0 -5 -8 -10 -19 -10 -25 0 -43 -24
-39 -52 3 -20 28 -33 177 -92 132 -53 177 -67 190 -59 20 13 26 50 11 68 -9
11 -2 43 35 147 48 134 63 203 48 225 -7 9 -18 9 -50 -2 -40 -14 -155 -36
-161 -30 -1 1 27 19 63 40 36 21 72 46 81 56 14 16 14 19 -12 36 -25 16 -55
18 -247 21 l-218 3 6 32 c19 88 68 210 153 379 88 176 98 192 158 244 62 55
73 60 301 140 130 46 237 84 239 84 7 0 400 489 412 513 43 86 -56 178 -145
135z"/>
<path d="M3580 3173 c-8 -2 -117 -66 -241 -141 l-226 -136 31 -21 31 -22 119
41 119 41 79 95 c123 146 129 157 88 143z"/>
<path d="M2975 3094 c-102 -92 -284 -159 -460 -171 -49 -3 -93 -11 -97 -17
-28 -41 21 -124 75 -128 16 -2 33 -8 39 -15 7 -9 45 -13 131 -13 l120 0 51 53
c58 61 137 97 211 97 42 0 45 2 45 26 0 14 11 39 25 56 42 50 31 114 -25 143
-44 23 -60 18 -115 -31z"/>
<path d="M2800 1190 c-38 -110 -50 -157 -45 -177 9 -39 53 -82 91 -89 38 -7
93 16 112 47 13 20 102 264 102 279 0 4 -24 16 -52 28 -29 11 -76 29 -104 40
l-52 21 -52 -149z"/>
<path d="M1838 792 c-64 -64 -121 -127 -127 -139 -37 -73 18 -163 100 -163 41
0 46 4 178 135 l136 134 -74 68 c-41 37 -79 71 -86 75 -7 4 -57 -39 -127 -110z"/>
</g>
</svg>
