<?xml version="1.0" standalone="no"?>
<!DOCTYPE svg PUBLIC "-//W3C//DTD SVG 20010904//EN"
 "http://www.w3.org/TR/2001/REC-SVG-20010904/DTD/svg10.dtd">
<svg version="1.0" xmlns="http://www.w3.org/2000/svg"
 width="225.000000pt" height="225.000000pt" viewBox="0 0 225.000000 225.000000"
 preserveAspectRatio="xMidYMid meet">

<g transform="translate(0.000000,225.000000) scale(0.100000,-0.100000)"
fill="#000000" stroke="none">
<path d="M962 2237 c-9 -11 8 -33 82 -105 51 -51 95 -92 98 -92 3 0 8 7 12 15
4 10 -16 37 -57 78 -117 115 -123 119 -135 104z"/>
<path d="M1171 2036 c-10 -12 1 -27 64 -88 43 -40 86 -76 96 -80 11 -4 19 -12
19 -17 0 -5 38 -47 85 -93 61 -59 86 -91 87 -110 1 -15 6 -26 11 -25 5 1 12
-4 15 -12 3 -10 0 -12 -12 -8 -14 6 -16 -4 -18 -66 -1 -40 -2 -88 -1 -107 0
-23 -10 -52 -33 -87 -22 -35 -34 -66 -34 -89 0 -44 -24 -86 -60 -107 -22 -14
-28 -26 -33 -68 -11 -89 -58 -173 -147 -261 -44 -43 -80 -84 -80 -91 0 -6 -27
15 -60 48 -33 33 -60 64 -60 71 0 12 52 62 93 88 l26 18 3 -74 3 -73 55 55
c68 69 121 170 125 238 l2 50 -31 -18 c-40 -23 -104 -34 -120 -21 -30 25 -126
-32 -126 -75 0 -37 64 -36 105 2 26 24 33 20 12 -7 -27 -35 -66 -52 -106 -45
-38 6 -42 3 -100 -54 -86 -85 -85 -93 33 -209 85 -82 97 -91 121 -85 27 7 28
6 22 -27 -3 -19 -9 -65 -12 -104 -8 -93 -53 -266 -73 -281 -26 -19 -7 -39 66
-68 76 -31 108 -29 97 4 -3 10 3 50 14 87 37 129 37 130 -3 143 -19 6 -39 17
-45 24 -9 10 -2 11 34 6 25 -4 48 -3 51 1 3 5 8 47 11 94 3 47 9 87 12 90 4 2
13 0 21 -5 20 -12 29 -352 10 -375 -10 -12 -10 -18 0 -30 13 -16 46 -18 128
-9 l52 7 -6 46 c-3 25 -7 75 -8 111 -2 36 -4 70 -5 77 0 6 -20 13 -43 15 l-43
3 44 19 43 19 -6 91 c-20 280 -38 415 -59 428 -9 5 -9 10 0 19 6 6 9 26 6 45
-5 30 0 40 47 91 30 32 75 91 102 132 48 73 48 74 49 160 0 47 4 94 7 104 8
20 2 25 230 -195 77 -75 129 -117 138 -114 8 3 14 9 14 14 0 5 -42 48 -92 97
-229 219 -288 280 -288 295 0 22 -29 47 -57 52 -12 1 -69 48 -125 103 -241
235 -254 247 -267 231z m69 -50 c0 -3 -4 -8 -10 -11 -5 -3 -10 -1 -10 4 0 6 5
11 10 11 6 0 10 -2 10 -4z m304 -617 c-3 -5 -10 -7 -15 -3 -5 3 -7 10 -3 15 3
5 10 7 15 3 5 -3 7 -10 3 -15z m-324 -360 c0 -5 -4 -9 -10 -9 -5 0 -10 7 -10
16 0 8 5 12 10 9 6 -3 10 -10 10 -16z m97 -125 c-9 -9 -28 6 -21 18 4 6 10 6
17 -1 6 -6 8 -13 4 -17z m-307 -104 c0 -5 -4 -10 -10 -10 -5 0 -10 5 -10 10 0
6 5 10 10 10 6 0 10 -4 10 -10z m200 -5 c0 -8 -4 -15 -10 -15 -5 0 -10 7 -10
15 0 8 5 15 10 15 6 0 10 -7 10 -15z m220 -10 c0 -8 -4 -15 -10 -15 -5 0 -10
7 -10 15 0 8 5 15 10 15 6 0 10 -7 10 -15z m-326 -116 c-3 -5 -10 -7 -15 -3
-5 3 -7 10 -3 15 3 5 10 7 15 3 5 -3 7 -10 3 -15z m216 -10 c0 -5 -4 -9 -10
-9 -5 0 -10 7 -10 16 0 8 5 12 10 9 6 -3 10 -10 10 -16z m-105 -108 c3 -5 1
-12 -5 -16 -5 -3 -10 1 -10 9 0 18 6 21 15 7z m201 -18 c-10 -10 -19 5 -10 18
6 11 8 11 12 0 2 -7 1 -15 -2 -18z m-211 -222 c3 -5 1 -12 -5 -16 -5 -3 -10 1
-10 9 0 18 6 21 15 7z"/>
<path d="M614 1904 c37 -19 70 -33 73 -31 5 5 -119 67 -133 67 -5 -1 22 -17
60 -36z"/>
<path d="M722 1847 c9 -7 58 -41 110 -76 54 -38 137 -110 199 -174 59 -59 110
-104 113 -99 9 14 -158 180 -244 244 -86 63 -173 118 -186 118 -5 0 -2 -6 8
-13z"/>
<path d="M250 1796 c0 -7 111 -38 117 -32 3 2 -15 10 -38 16 -24 6 -52 13 -61
16 -10 3 -18 3 -18 0z"/>
<path d="M406 1751 c5 -4 43 -20 84 -34 152 -51 197 -70 297 -124 138 -76 220
-143 220 -180 0 -15 3 -37 8 -47 6 -14 5 -17 -3 -12 -7 4 -12 1 -12 -8 0 -22
9 -20 52 9 l38 25 -36 50 c-20 28 -42 50 -48 50 -7 0 -21 9 -31 20 -17 19
-177 120 -190 120 -3 0 -24 9 -48 20 -44 20 -145 60 -162 65 -5 1 -17 5 -25 8
-32 14 -134 47 -144 47 -6 0 -6 -3 0 -9z"/>
<path d="M1040 1501 c0 -20 36 -48 47 -37 9 9 -5 34 -26 46 -18 9 -21 8 -21
-9z"/>
<path d="M1161 1498 c-1 -32 -16 -36 -43 -11 -17 15 -18 15 -12 -15 6 -29 4
-32 -16 -32 l-23 0 22 -24 23 -25 39 21 c41 21 43 31 18 93 -7 17 -8 16 -8 -7z"/>
<path d="M1205 1469 c-4 -6 -4 -13 -1 -16 8 -8 36 5 36 17 0 13 -27 13 -35 -1z"/>
<path d="M1213 1417 c-50 -21 -144 -82 -184 -119 -27 -25 -23 -55 9 -75 15
-10 33 -26 40 -35 34 -46 125 -62 182 -33 40 20 66 61 79 122 11 56 7 83 -14
83 -7 0 -24 18 -36 39 l-24 39 -52 -21z m71 -69 c8 -12 12 -26 9 -31 -3 -6 -5
-30 -4 -54 2 -54 -11 -79 -44 -87 -30 -8 -85 18 -85 39 0 7 -10 15 -22 17 -14
2 -26 14 -33 32 -8 25 -6 31 19 52 16 15 35 22 45 19 11 -3 25 3 36 15 24 26
60 26 79 -2z"/>
<path d="M1224 1329 c-10 -17 13 -36 27 -22 12 12 4 33 -11 33 -5 0 -12 -5
-16 -11z"/>
<path d="M1144 1289 c-10 -17 13 -36 27 -22 12 12 4 33 -11 33 -5 0 -12 -5
-16 -11z"/>
<path d="M1249 1254 c-7 -9 -25 -21 -39 -27 -18 -7 -21 -11 -9 -14 28 -7 69
15 69 37 0 24 -3 25 -21 4z"/>
<path d="M1372 1282 c-7 -5 -14 -17 -17 -28 -2 -10 -10 -34 -17 -52 -11 -28
-10 -34 1 -42 34 -20 106 51 78 79 -9 9 -9 14 2 20 7 5 10 14 7 20 -8 13 -35
14 -54 3z"/>
<path d="M2012 1228 c-10 -10 6 -31 75 -100 48 -48 93 -88 100 -88 32 0 21 26
-28 72 -30 27 -72 67 -94 89 -32 31 -43 37 -53 27z"/>
<path d="M1005 1163 c-80 -23 -198 -72 -225 -93 -56 -46 -151 -110 -250 -170
-138 -83 -149 -92 -150 -114 0 -15 -3 -16 -15 -6 -12 10 -31 3 -108 -42 -50
-30 -118 -69 -149 -87 -32 -18 -58 -34 -58 -36 0 -2 35 -15 78 -29 96 -32 214
-101 266 -154 21 -22 46 -62 55 -89 9 -26 23 -57 31 -68 50 -68 209 -123 492
-170 37 -6 68 36 50 66 -17 27 -15 46 8 77 23 31 58 180 67 287 6 70 5 75 -14
75 -12 0 -58 39 -118 101 -97 100 -97 100 -93 144 5 44 6 44 100 126 10 9 18
26 18 39 0 19 2 20 15 10 13 -11 15 -8 15 13 0 17 13 36 40 60 l40 34 -23 20
c-21 20 -25 20 -72 6z m-205 -138 c0 -8 -4 -15 -10 -15 -5 0 -10 7 -10 15 0 8
5 15 10 15 6 0 10 -7 10 -15z m-110 -121 c0 -8 -5 -12 -10 -9 -6 4 -8 11 -5
16 9 14 15 11 15 -7z m-100 -120 c0 -9 -5 -14 -12 -12 -18 6 -21 28 -4 28 9 0
16 -7 16 -16z m210 -4 c0 -5 -7 -10 -15 -10 -8 0 -15 5 -15 10 0 6 7 10 15 10
8 0 15 -4 15 -10z m-530 -110 c0 -5 -4 -10 -10 -10 -5 0 -10 5 -10 10 0 6 5
10 10 10 6 0 10 -4 10 -10z m210 1 c0 -6 -4 -13 -10 -16 -5 -3 -10 1 -10 9 0
9 5 16 10 16 6 0 10 -4 10 -9z m210 -6 c0 -8 -4 -15 -10 -15 -5 0 -10 7 -10
15 0 8 5 15 10 15 6 0 10 -7 10 -15z m204 -10 c-4 -8 -8 -15 -10 -15 -2 0 -4
7 -4 15 0 8 4 15 10 15 5 0 7 -7 4 -15z m-524 -105 c0 -5 -4 -10 -10 -10 -5 0
-10 5 -10 10 0 6 5 10 10 10 6 0 10 -4 10 -10z m202 -12 c-7 -7 -12 -8 -12 -2
0 6 3 14 7 17 3 4 9 5 12 2 2 -3 -1 -11 -7 -17z m217 -7 c-15 -5 -22 6 -14 19
6 9 10 9 16 -1 5 -8 4 -15 -2 -18z m211 11 c0 -13 -12 -22 -22 -16 -10 6 -1
24 13 24 5 0 9 -4 9 -8z m-529 -115 c-1 -12 -15 -9 -19 4 -3 6 1 10 8 8 6 -3
11 -8 11 -12z m213 -8 c-3 -5 -10 -7 -15 -3 -5 3 -7 10 -3 15 3 5 10 7 15 3 5
-3 7 -10 3 -15z m206 1 c0 -5 -4 -10 -10 -10 -5 0 -10 5 -10 10 0 6 5 10 10
10 6 0 10 -4 10 -10z m-100 -114 c0 -3 -4 -8 -10 -11 -5 -3 -10 -1 -10 4 0 6
5 11 10 11 6 0 10 -2 10 -4z m210 -16 c0 -5 -2 -10 -4 -10 -3 0 -8 5 -11 10
-3 6 -1 10 4 10 6 0 11 -4 11 -10z"/>
<path d="M1055 867 l-25 -22 34 -37 c18 -21 36 -34 40 -31 3 3 6 28 6 54 0 56
-18 68 -55 36z"/>
<path d="M1286 473 c-4 -32 -18 -105 -32 -163 -15 -58 -27 -121 -28 -140 -2
-46 -12 -60 -42 -60 -14 0 -24 -6 -24 -14 0 -10 20 -16 71 -21 38 -4 72 -5 75
-2 3 2 7 20 11 40 4 27 1 39 -17 57 -16 16 -20 28 -14 43 8 23 17 317 10 317
-3 0 -7 -26 -10 -57z"/>
<path d="M1335 105 c-8 -68 -1 -93 31 -101 36 -9 61 18 69 74 3 26 8 55 11 65
5 15 -2 17 -49 17 l-55 0 -7 -55z"/>
<path d="M1030 109 c-23 -44 -19 -73 11 -90 32 -17 58 -1 84 51 l24 48 -40 16
c-54 22 -56 21 -79 -25z"/>
</g>
</svg>
