<?xml version="1.0" standalone="no"?>
<!DOCTYPE svg PUBLIC "-//W3C//DTD SVG 20010904//EN"
 "http://www.w3.org/TR/2001/REC-SVG-20010904/DTD/svg10.dtd">
<svg version="1.0" xmlns="http://www.w3.org/2000/svg"
 width="256.000000pt" height="256.000000pt" viewBox="0 0 256.000000 256.000000"
 preserveAspectRatio="xMidYMid meet">

<g transform="translate(0.000000,256.000000) scale(0.100000,-0.100000)"
fill="#000000" stroke="none">
<path d="M1317 2529 c-9 -20 -16 -27 -16 -16 -1 26 -18 20 -29 -10 -6 -16 -11
-22 -11 -15 -2 24 -19 12 -26 -18 -4 -17 -10 -28 -15 -25 -10 6 -20 -19 -20
-49 0 -22 0 -22 65 -7 36 8 65 18 65 23 0 4 -8 5 -17 1 -17 -6 -17 -5 -1 13
14 14 20 16 30 6 22 -22 -4 -45 -63 -57 -111 -23 -141 -56 -97 -108 83 -100
82 -99 135 -104 68 -7 110 18 146 88 14 29 24 56 21 60 -9 15 -44 10 -44 -6 0
-8 -9 -20 -20 -27 -12 -8 -20 -24 -20 -38 0 -35 -17 -50 -57 -50 -34 0 -53 21
-53 59 0 12 -4 21 -10 21 -5 0 -14 9 -20 20 -24 45 22 94 63 67 19 -12 25 -12
50 3 27 17 27 18 7 23 -16 4 -21 12 -18 29 3 24 28 32 36 10 2 -8 -2 -10 -14
-5 -12 4 -15 3 -10 -5 11 -18 28 -14 61 14 17 15 23 24 14 21 -12 -4 -18 2
-23 25 -5 25 -9 28 -20 19 -12 -10 -15 -8 -18 10 -4 28 -25 36 -31 12 -4 -16
-5 -16 -6 2 -1 11 -5 26 -10 34 -7 11 -13 7 -24 -20z"/>
<path d="M1432 2408 c-28 -28 -7 -78 33 -78 28 0 125 -103 125 -134 0 -5 -28
-6 -66 -2 -60 6 -68 5 -95 -19 -17 -14 -35 -25 -41 -25 -5 0 -32 -20 -60 -44
-70 -61 -131 -92 -234 -119 l-89 -23 -80 32 c-44 18 -81 31 -83 29 -3 -2 1
-19 7 -37 l11 -32 -28 27 c-36 35 -46 26 -63 -63 -7 -36 -20 -70 -28 -77 -23
-17 -6 -29 65 -47 62 -16 104 -20 104 -11 0 3 -5 14 -12 24 -6 10 -8 26 -5 34
5 14 15 13 79 -14 40 -17 77 -34 81 -39 5 -4 -29 -31 -74 -60 l-82 -52 31 -20
c38 -23 41 -32 10 -23 -13 4 -30 9 -39 11 -13 4 -20 -13 -35 -86 -11 -58 -22
-90 -31 -90 -7 0 -13 -7 -13 -15 0 -8 17 -19 43 -25 23 -6 59 -16 81 -21 43
-12 68 0 48 23 -8 10 -6 33 5 86 l16 72 138 90 c76 49 141 94 144 100 3 6 8
39 10 75 4 84 26 148 71 209 l36 49 52 -7 c205 -24 256 -19 256 22 0 9 -16 49
-36 89 -40 80 -110 165 -155 188 -34 18 -81 19 -97 3z"/>
<path d="M680 2333 c1 -10 5 -37 9 -60 6 -32 5 -46 -5 -54 -20 -16 -17 -45 5
-66 16 -15 40 -108 41 -155 0 -5 9 -8 21 -8 17 0 20 5 15 28 -3 15 -8 46 -11
69 l-6 41 101 -29 101 -30 62 30 c34 16 63 28 65 26 2 -2 -8 -26 -22 -54 l-26
-51 23 0 c58 0 247 90 247 118 0 4 -16 14 -35 21 -22 8 -46 28 -62 53 -24 36
-30 39 -60 35 -18 -3 -71 -22 -118 -42 -46 -20 -92 -34 -102 -31 -10 2 -57 16
-105 31 l-86 26 -7 59 c-6 50 -10 60 -26 60 -12 0 -19 -7 -19 -17z"/>
<path d="M1295 2321 c-6 -11 20 -33 28 -24 4 3 7 10 7 14 0 11 -29 19 -35 10z"/>
<path d="M1385 2320 c-11 -17 5 -32 21 -19 7 6 11 15 8 20 -7 12 -21 11 -29
-1z"/>
<path d="M1315 2230 c-4 -6 8 -10 30 -10 22 0 34 4 30 10 -3 6 -17 10 -30 10
-13 0 -27 -4 -30 -10z"/>
<path d="M740 1930 c0 -11 2 -20 4 -20 2 0 6 9 9 20 3 11 1 20 -4 20 -5 0 -9
-9 -9 -20z"/>
<path d="M750 1718 c-12 -72 -12 -72 13 -92 21 -17 27 -33 33 -83 7 -65 13
-73 33 -49 8 10 9 31 2 72 -5 33 -6 63 -3 68 3 5 11 36 17 68 14 65 15 64 -57
82 -26 6 -26 5 -38 -66z"/>
<path d="M1261 1731 c-11 -7 -11 -16 2 -57 8 -27 21 -73 27 -103 26 -113 93
-148 250 -130 140 17 214 -2 295 -73 27 -23 39 -28 48 -19 16 16 -53 84 -117
113 -47 21 -62 23 -204 20 -200 -3 -209 1 -237 122 -15 63 -40 136 -47 136 -2
0 -9 -4 -17 -9z"/>
<path d="M822 1374 c5 -27 7 -66 4 -86 -4 -23 0 -47 9 -65 8 -15 40 -207 72
-425 51 -357 59 -398 75 -398 10 0 18 6 18 13 -1 6 -27 188 -59 402 -55 373
-57 391 -40 410 9 11 22 47 29 80 7 33 14 65 17 72 4 11 -29 24 -104 39 l-31
6 10 -48z"/>
<path d="M970 360 c0 -20 52 -355 56 -359 2 -2 11 -1 20 3 11 4 14 14 11 29
-3 12 -15 93 -28 180 -20 137 -25 157 -41 157 -10 0 -18 -5 -18 -10z"/>
</g>
</svg>
