<?xml version="1.0" standalone="no"?>
<!DOCTYPE svg PUBLIC "-//W3C//DTD SVG 20010904//EN"
 "http://www.w3.org/TR/2001/REC-SVG-20010904/DTD/svg10.dtd">
<svg version="1.0" xmlns="http://www.w3.org/2000/svg"
 width="256.000000pt" height="256.000000pt" viewBox="0 0 256.000000 256.000000"
 preserveAspectRatio="xMidYMid meet">

<g transform="translate(0.000000,256.000000) scale(0.100000,-0.100000)"
fill="#000000" stroke="none">
<path d="M1873 2224 l-153 -125 16 -24 c9 -14 21 -22 28 -18 11 7 270 216 295
239 13 12 12 16 -4 34 -10 11 -21 20 -24 20 -3 0 -75 -57 -158 -126z"/>
<path d="M1340 2154 c-6 -14 -10 -37 -10 -50 0 -14 -4 -22 -10 -19 -5 3 -10
14 -10 24 0 10 -6 24 -14 30 -11 9 -16 5 -25 -20 -6 -18 -11 -44 -11 -58 l-1
-26 -15 28 c-8 15 -19 27 -24 27 -5 0 -14 -26 -21 -57 -7 -32 -14 -50 -17 -40
-4 17 -17 23 -25 10 -3 -5 -8 -30 -12 -57 -7 -46 -6 -49 11 -42 11 5 49 13 87
19 43 7 67 15 67 24 0 16 -17 17 -22 1 -2 -6 -10 -8 -16 -4 -9 5 -9 13 -2 27
20 37 70 17 70 -28 0 -25 -26 -43 -64 -43 -55 0 -128 -22 -133 -40 -3 -10 -15
-22 -29 -28 -45 -21 -44 -103 1 -124 13 -6 29 -25 35 -43 13 -40 74 -99 122
-120 46 -19 128 -20 171 -2 48 20 92 62 114 106 11 22 34 52 51 66 42 35 43
74 2 108 -16 14 -30 30 -30 36 0 14 -94 41 -141 41 -43 0 -62 18 -57 57 2 22
8 28 27 28 13 0 29 -8 35 -17 14 -24 -3 -37 -19 -15 -9 12 -15 15 -20 7 -11
-18 0 -23 88 -41 l82 -16 61 48 c83 66 88 73 72 98 -7 12 -16 21 -19 21 -4 0
-31 -20 -61 -45 -60 -49 -68 -53 -68 -30 0 20 -10 19 -26 -2 -12 -16 -13 -15
-14 14 0 38 -16 83 -29 83 -5 0 -14 -12 -19 -27 -9 -28 -9 -27 -16 14 -4 22
-14 49 -21 60 -13 17 -14 17 -23 -7 -5 -14 -12 -34 -15 -45 -4 -16 -5 -15 -6
6 -1 36 -21 89 -32 89 -5 0 -14 -12 -19 -26z m-4 -323 c20 -18 21 -18 43 0 82
67 182 -56 101 -124 -19 -16 -30 -35 -30 -51 0 -36 -39 -76 -81 -82 -46 -8
-95 31 -105 82 -4 20 -13 38 -21 41 -16 6 -43 55 -43 77 0 8 12 28 26 45 30
37 79 42 110 12z"/>
<path d="M1256 1781 c-9 -14 3 -39 22 -46 19 -7 50 21 37 34 -16 15 -53 22
-59 12z"/>
<path d="M1423 1779 c-27 -10 -30 -34 -7 -43 19 -7 44 10 44 30 0 19 -12 23
-37 13z"/>
<path d="M1318 1653 c-10 -2 -18 -8 -18 -12 0 -16 13 -19 36 -9 18 8 31 8 50
-1 33 -15 46 -5 20 15 -19 14 -53 16 -88 7z"/>
<path d="M686 1731 c-54 -8 -86 -36 -86 -77 0 -25 75 -118 174 -214 31 -30 56
-57 56 -60 0 -4 -110 -96 -244 -205 -243 -198 -244 -199 -228 -222 10 -12 19
-22 22 -23 3 0 115 90 249 199 231 189 247 200 284 198 46 -2 77 28 77 72 0
18 11 35 35 54 38 30 43 48 20 67 -15 12 -19 11 -81 -35 -10 -7 -27 3 -64 40
-27 27 -50 53 -50 57 0 8 63 2 147 -13 43 -9 58 -17 83 -49 62 -78 117 -205
145 -334 l6 -29 70 69 c107 105 201 236 223 310 6 20 4 20 -50 -7 -63 -32
-128 -38 -198 -17 -45 14 -130 91 -157 144 -9 16 -31 38 -50 47 -65 30 -260
45 -383 28z"/>
<path d="M1604 1553 c-43 -128 -167 -301 -289 -405 -40 -35 -74 -68 -74 -75
-1 -7 -64 -56 -141 -110 l-141 -97 43 -23 c24 -12 51 -22 61 -23 9 0 17 -4 17
-10 0 -12 -49 -12 -108 -1 l-43 9 -51 -102 c-27 -55 -62 -111 -77 -123 -23
-19 -24 -23 -11 -37 8 -8 66 -33 128 -56 91 -33 116 -39 128 -29 9 7 12 20 8
32 -4 14 8 50 37 108 l43 88 136 95 c76 53 143 102 150 111 7 8 22 15 35 15
24 0 25 -2 86 -144 22 -49 46 -98 55 -108 21 -23 81 -24 114 -1 32 21 90 75
90 83 0 4 -11 12 -25 18 -22 10 -31 8 -71 -23 -25 -19 -49 -35 -53 -35 -9 0
-22 25 -52 100 -12 30 -35 67 -52 82 -34 30 -30 48 5 30 13 -6 91 -49 173 -94
l150 -83 47 -95 c37 -74 46 -102 41 -127 -4 -23 -1 -34 9 -38 8 -3 67 19 131
50 93 44 117 59 117 75 0 11 -7 23 -16 27 -9 3 -43 62 -75 130 l-58 124 -31
-16 c-16 -8 -51 -18 -77 -21 l-48 -6 52 33 c29 19 52 39 52 44 -1 6 -62 44
-136 85 l-136 75 -23 83 c-13 46 -35 109 -48 140 -13 31 -23 59 -21 60 5 6
330 -184 425 -248 87 -59 106 -76 125 -113 27 -56 104 -59 134 -6 50 89 -59
189 -449 411 -297 169 -280 161 -286 141z"/>
<path d="M2343 1290 c-23 -5 -61 -17 -83 -27 l-42 -18 30 -22 c28 -21 32 -21
78 -7 34 11 74 14 131 11 81 -5 103 2 103 30 0 7 -9 17 -21 23 -27 15 -144 21
-196 10z"/>
<path d="M1986 1061 l-48 -49 29 -16 c30 -15 30 -15 77 33 l48 49 -23 16 c-13
9 -26 16 -29 16 -3 0 -28 -22 -54 -49z"/>
<path d="M155 825 c-82 -68 -151 -128 -153 -133 -1 -4 6 -16 17 -26 19 -17 24
-14 175 109 l156 126 -16 25 c-9 13 -19 24 -23 23 -3 0 -73 -56 -156 -124z"/>
<path d="M2110 507 c-36 -17 -66 -33 -68 -33 -10 -5 83 -203 104 -221 51 -47
134 -11 134 57 0 37 -80 230 -95 229 -5 0 -39 -15 -75 -32z"/>
<path d="M786 414 c-45 -107 -46 -134 -5 -168 61 -52 102 -24 153 105 21 51
33 95 29 99 -9 9 -119 50 -132 50 -5 0 -25 -39 -45 -86z"/>
</g>
</svg>
