<?xml version="1.0" standalone="no"?>
<!DOCTYPE svg PUBLIC "-//W3C//DTD SVG 20010904//EN"
 "http://www.w3.org/TR/2001/REC-SVG-20010904/DTD/svg10.dtd">
<svg version="1.0" xmlns="http://www.w3.org/2000/svg"
 width="256.000000pt" height="256.000000pt" viewBox="0 0 256.000000 256.000000"
 preserveAspectRatio="xMidYMid meet">

<g transform="translate(0.000000,256.000000) scale(0.100000,-0.100000)"
fill="#000000" stroke="none">
<path d="M1195 2549 c-5 -6 23 -42 66 -85 56 -57 76 -71 86 -62 17 13 12 19
-78 99 -43 38 -70 56 -74 48z"/>
<path d="M1362 2388 c-8 -8 28 -49 137 -154 l149 -144 -6 -112 c-4 -100 -8
-118 -31 -152 -14 -22 -24 -49 -23 -62 4 -28 -22 -80 -47 -94 -11 -6 -22 -26
-26 -49 -12 -72 -60 -154 -128 -223 l-65 -65 -46 46 -46 47 43 42 c23 23 46
42 49 42 4 0 8 -26 10 -57 l3 -58 46 46 c25 25 55 66 67 90 20 42 45 139 35
139 -2 0 -17 -7 -33 -15 -31 -16 -73 -20 -105 -11 -31 10 -85 -28 -85 -59 0
-21 5 -25 28 -25 15 0 39 7 52 16 20 13 20 11 -4 -11 -24 -22 -36 -26 -64 -21
-31 5 -39 0 -88 -49 -30 -29 -54 -60 -54 -67 0 -7 32 -48 71 -90 57 -63 76
-78 100 -78 33 0 32 16 9 -150 -13 -93 -37 -180 -50 -180 -6 0 -10 -7 -10 -16
0 -15 95 -64 124 -64 8 0 16 17 19 43 4 23 13 68 21 100 l14 57 -34 15 c-44
18 -43 23 3 21 26 -1 38 4 40 14 1 8 5 41 8 73 4 36 11 57 19 57 18 0 31 -261
15 -291 -19 -37 -5 -49 59 -49 58 0 107 20 84 34 -8 5 -12 39 -12 91 l0 84
-37 3 -38 3 37 17 37 16 -5 59 c-10 122 -36 360 -43 393 -7 32 -3 40 39 90 26
30 64 80 84 110 34 52 36 59 36 137 0 46 3 83 6 83 3 0 69 -61 147 -135 103
-100 143 -133 151 -124 8 8 -30 50 -141 159 -84 81 -153 154 -153 162 0 18
-33 50 -47 46 -6 -2 -78 61 -160 139 -110 104 -153 139 -161 131z"/>
<path d="M939 2264 c122 -65 203 -125 309 -228 50 -49 92 -84 92 -78 0 20
-139 154 -213 206 -83 59 -237 146 -257 146 -8 0 23 -21 69 -46z"/>
<path d="M625 2189 c4 -5 13 -9 21 -9 37 0 294 -95 391 -144 99 -51 225 -144
196 -146 -9 0 -10 -7 -3 -25 6 -16 6 -25 0 -25 -5 0 -7 -7 -4 -15 5 -12 12
-10 40 12 l35 26 -21 22 c-11 12 -20 27 -20 33 0 7 -8 16 -17 20 -10 4 -50 29
-90 55 -73 48 -176 96 -293 136 -99 35 -241 71 -235 60z"/>
<path d="M1257 1951 c5 -20 31 -36 41 -26 6 6 -27 45 -39 45 -4 0 -5 -9 -2
-19z"/>
<path d="M1307 1935 c4 -18 1 -25 -11 -25 -14 0 -14 -3 -4 -20 15 -24 31 -25
64 -4 18 12 23 22 18 38 -9 29 -14 33 -24 16 -7 -12 -12 -12 -28 3 -19 17 -19
17 -15 -8z"/>
<path d="M1390 1937 c0 -27 13 -36 26 -16 3 6 -1 18 -10 27 -15 15 -16 14 -16
-11z"/>
<path d="M1361 1870 c-110 -58 -151 -103 -118 -129 6 -6 29 -24 49 -41 87 -73
183 -36 209 82 9 36 7 44 -11 62 -11 12 -28 31 -38 43 l-17 23 -74 -40z m87
-32 c7 -7 12 -34 12 -62 0 -77 -45 -111 -89 -67 -11 11 -29 24 -40 31 -40 21
-16 89 27 78 12 -3 23 2 31 13 13 22 41 25 59 7z"/>
<path d="M1415 1820 c-4 -6 -3 -16 3 -22 6 -6 12 -6 17 2 4 6 3 16 -3 22 -6 6
-12 6 -17 -2z"/>
<path d="M1345 1790 c-4 -6 -3 -16 3 -22 6 -6 12 -6 17 2 4 6 3 16 -3 22 -6 6
-12 6 -17 -2z"/>
<path d="M1413 1752 c-37 -19 -42 -32 -14 -32 20 0 51 25 51 41 0 11 2 11 -37
-9z"/>
<path d="M1523 1778 c-14 -20 -36 -89 -29 -95 3 -3 17 -2 31 1 29 7 59 64 49
90 -7 19 -38 21 -51 4z"/>
<path d="M2036 1732 c-3 -5 28 -42 69 -82 60 -60 77 -72 87 -62 11 11 -1 27
-58 82 -69 68 -87 79 -98 62z"/>
<path d="M1184 1671 c-63 -18 -104 -40 -214 -117 -59 -42 -366 -228 -468 -284
-47 -26 -45 -32 13 -50 54 -17 153 -67 193 -98 34 -26 82 -98 82 -124 0 -20
47 -62 99 -88 50 -25 199 -65 283 -75 51 -6 57 -5 67 14 8 15 9 27 1 40 -10
20 -4 51 10 51 10 0 46 154 55 236 6 59 6 62 -18 68 -13 3 -56 40 -96 81 -91
96 -92 109 -12 186 32 31 61 69 65 83 3 14 20 35 36 48 23 16 27 25 19 35 -15
17 -40 16 -115 -6z"/>
<path d="M1277 1453 l-27 -29 29 -28 c26 -25 30 -26 34 -9 3 10 3 35 -1 56
l-7 38 -28 -28z"/>
<path d="M2123 1204 c-6 -15 5 -30 82 -112 l40 -43 -40 -35 c-22 -18 -34 -34
-27 -34 6 0 12 -11 12 -25 0 -29 2 -28 -38 -14 -24 8 -46 7 -94 -4 -134 -32
-124 -35 -144 39 -17 65 -35 87 -56 66 -8 -8 -5 -31 8 -83 26 -102 30 -105 98
-93 l57 11 29 -38 c17 -20 30 -39 30 -42 0 -2 -16 -4 -37 -3 -32 1 -37 -2 -45
-29 -12 -37 -16 -191 -6 -201 17 -16 47 29 53 79 13 102 39 152 73 140 23 -9
32 -23 32 -55 0 -18 5 -28 15 -28 8 0 15 7 15 16 0 29 17 4 24 -34 10 -64 24
-69 131 -47 27 6 35 2 72 -42 45 -54 116 -94 135 -75 8 8 -2 17 -36 32 -26 13
-64 43 -88 72 -45 54 -44 54 -144 33 -31 -7 -32 -6 -47 46 -17 58 -15 77 4 36
6 -14 17 -23 25 -20 8 3 14 -6 16 -25 3 -30 3 -30 36 -17 29 13 32 18 32 58 0
55 -16 71 -64 61 -23 -4 -36 -2 -36 4 0 6 -5 44 -10 86 l-11 75 41 37 c22 20
40 43 40 51 0 19 -141 173 -158 173 -7 0 -15 -7 -19 -16z"/>
<path d="M1457 1125 c-4 -22 -18 -83 -30 -135 -12 -52 -20 -105 -19 -117 2
-14 -5 -26 -20 -34 -13 -7 -25 -11 -28 -10 -2 1 -6 -2 -8 -7 -3 -9 106 -23
121 -15 13 8 7 66 -9 84 -12 14 -13 22 -4 38 6 13 10 63 8 128 -2 86 -5 100
-11 68z"/>
<path d="M2036 1095 c4 -16 -3 -42 -20 -77 -33 -65 -33 -82 -3 -74 52 15 107
18 136 8 33 -12 38 -5 22 26 -6 9 -12 33 -16 53 -6 41 -25 61 -74 78 -48 16
-52 14 -45 -14z"/>
<path d="M1992 1082 c-25 -8 -54 -55 -46 -77 5 -12 34 -30 39 -23 22 34 45 82
45 94 0 15 -3 15 -38 6z"/>
<path d="M266 844 c-13 -101 -9 -120 34 -157 33 -28 40 -40 40 -69 0 -35 -17
-138 -24 -145 -2 -2 -15 2 -29 8 -40 18 -57 -2 -57 -67 0 -49 2 -55 30 -69 32
-16 33 -15 30 28 -1 19 3 27 14 27 9 0 16 7 16 15 0 8 4 15 9 15 5 0 4 -24 -3
-52 -13 -59 -20 -61 -90 -35 -51 19 -71 10 -114 -53 -22 -32 -49 -57 -78 -70
-44 -22 -57 -40 -29 -40 35 0 94 42 134 94 23 31 44 56 47 56 3 0 22 -9 44
-20 71 -36 102 -22 114 51 6 39 8 40 21 23 14 -20 19 -19 116 21 14 5 18 -3
24 -47 10 -75 20 -95 54 -113 39 -20 48 -19 61 5 8 16 5 24 -19 49 -24 25 -30
41 -36 100 -8 82 -22 100 -62 82 -14 -6 -27 -10 -29 -8 -2 2 9 23 26 45 32 44
41 47 105 32 38 -9 44 -7 108 35 44 30 67 52 67 64 0 34 -17 32 -76 -9 -65
-45 -74 -46 -176 -24 -84 19 -89 19 -143 11 -31 -5 -28 -3 14 9 48 13 58 13
98 0 58 -20 65 -5 28 69 -16 34 -24 63 -20 75 9 28 -32 27 -76 -3 -28 -19 -35
-30 -37 -64 -2 -23 -10 -47 -18 -53 -9 -8 -14 -9 -14 -2 0 6 5 12 11 14 7 2
-7 19 -30 37 l-42 34 3 71 c3 66 1 71 -18 74 -18 3 -22 -4 -28 -44z"/>
<path d="M420 870 c0 -5 5 -10 10 -10 6 0 10 5 10 10 0 6 -4 10 -10 10 -5 0
-10 -4 -10 -10z"/>
<path d="M1495 830 c-8 -57 5 -83 39 -78 26 4 46 42 46 91 0 36 -1 37 -39 37
l-39 0 -7 -50z"/>
<path d="M520 860 c0 -5 5 -10 10 -10 6 0 10 5 10 10 0 6 -4 10 -10 10 -5 0
-10 -4 -10 -10z"/>
<path d="M640 860 c0 -5 5 -10 10 -10 6 0 10 5 10 10 0 6 -4 10 -10 10 -5 0
-10 -4 -10 -10z"/>
<path d="M1250 841 c-18 -45 -10 -75 22 -79 22 -3 32 3 48 30 27 45 25 52 -13
66 -44 16 -43 16 -57 -17z"/>
<path d="M745 850 c-3 -5 1 -10 10 -10 9 0 13 5 10 10 -3 6 -8 10 -10 10 -2 0
-7 -4 -10 -10z"/>
<path d="M1665 850 c3 -5 8 -10 11 -10 2 0 4 5 4 10 0 6 -5 10 -11 10 -5 0 -7
-4 -4 -10z"/>
<path d="M690 840 c0 -5 5 -10 10 -10 6 0 10 5 10 10 0 6 -4 10 -10 10 -5 0
-10 -4 -10 -10z"/>
<path d="M1770 839 c0 -5 5 -7 10 -4 6 3 10 8 10 11 0 2 -4 4 -10 4 -5 0 -10
-5 -10 -11z"/>
<path d="M376 821 c-4 -5 -2 -12 3 -15 5 -4 12 -2 15 3 4 5 2 12 -3 15 -5 4
-12 2 -15 -3z"/>
<path d="M1700 820 c0 -5 5 -10 10 -10 6 0 10 5 10 10 0 6 -4 10 -10 10 -5 0
-10 -4 -10 -10z"/>
<path d="M1040 800 c0 -5 5 -10 11 -10 5 0 7 5 4 10 -3 6 -8 10 -11 10 -2 0
-4 -4 -4 -10z"/>
<path d="M520 767 c0 -21 44 -97 56 -97 25 0 37 29 25 58 -13 31 -81 63 -81
39z"/>
<path d="M1745 770 c4 -6 11 -8 16 -5 14 9 11 15 -7 15 -8 0 -12 -5 -9 -10z"/>
<path d="M1850 764 c0 -8 5 -12 10 -9 6 4 8 11 5 16 -9 14 -15 11 -15 -7z"/>
<path d="M1926 771 c-4 -5 -2 -12 3 -15 5 -4 12 -2 15 3 4 5 2 12 -3 15 -5 4
-12 2 -15 -3z"/>
<path d="M920 759 c0 -5 5 -7 10 -4 6 3 10 8 10 11 0 2 -4 4 -10 4 -5 0 -10
-5 -10 -11z"/>
<path d="M1380 760 c0 -5 5 -10 10 -10 6 0 10 5 10 10 0 6 -4 10 -10 10 -5 0
-10 -4 -10 -10z"/>
<path d="M2089 758 c-1 -7 0 -42 0 -78 l2 -65 -44 -35 c-41 -32 -44 -38 -39
-69 5 -31 3 -33 -14 -26 -26 13 -97 11 -174 -3 l-65 -12 -53 36 c-54 35 -87
41 -87 14 0 -8 29 -34 64 -59 l63 -44 57 11 c54 10 57 10 79 -16 13 -15 28
-35 33 -45 10 -17 8 -18 -21 -12 -45 10 -57 -6 -65 -87 -6 -57 -12 -76 -31
-93 -46 -42 -21 -79 37 -55 37 16 45 30 53 103 4 31 12 57 17 57 5 0 26 -7 46
-15 46 -19 70 -19 81 2 8 13 11 10 17 -18 18 -89 33 -99 104 -68 28 11 55 19
61 17 6 -2 27 -26 48 -53 38 -50 113 -102 132 -90 18 11 11 21 -30 39 -25 11
-55 38 -83 74 -24 32 -52 58 -64 60 -12 2 -41 -6 -65 -17 -53 -24 -64 -16 -72
54 -3 28 -3 42 0 33 3 -10 12 -18 20 -18 9 0 14 -11 14 -35 0 -40 0 -39 35
-23 24 11 26 15 23 72 l-3 61 -42 -2 c-47 -2 -48 -1 -59 108 l-6 65 41 33 c40
32 41 34 41 96 0 35 -4 75 -10 89 -10 27 -39 36 -41 14z"/>
<path d="M747 744 c-8 -8 1 -24 14 -24 5 0 9 7 9 15 0 15 -12 20 -23 9z"/>
<path d="M1580 740 c0 -5 5 -10 10 -10 6 0 10 5 10 10 0 6 -4 10 -10 10 -5 0
-10 -4 -10 -10z"/>
<path d="M1680 719 c0 -5 5 -7 10 -4 6 3 10 8 10 11 0 2 -4 4 -10 4 -5 0 -10
-5 -10 -11z"/>
<path d="M816 628 c-41 -46 -76 -88 -76 -94 0 -6 18 -25 40 -43 36 -28 40 -37
39 -74 0 -23 -4 -62 -7 -87 l-7 -45 -45 0 -45 0 -3 -55 c-3 -53 -2 -56 27 -67
35 -13 41 -9 41 24 0 15 5 23 13 20 6 -2 18 10 25 26 20 49 22 26 3 -33 -20
-60 -19 -60 -108 -45 -41 7 -42 6 -93 -49 -29 -30 -68 -61 -86 -68 -19 -7 -34
-15 -34 -19 0 -40 97 6 142 67 31 41 36 44 68 39 108 -18 108 -18 118 2 6 10
13 35 17 56 4 20 11 37 16 37 5 0 6 -7 3 -15 -8 -19 16 -19 78 -1 l46 15 7
-42 c16 -104 17 -108 46 -122 62 -33 103 0 54 42 -20 18 -28 38 -36 85 -17
116 -15 111 -60 104 l-41 -6 33 44 c29 41 34 44 63 38 17 -3 46 -7 65 -7 l34
0 24 85 c14 51 19 88 14 93 -20 20 -41 -4 -58 -64 l-19 -62 -83 2 c-74 2 -87
0 -122 -23 -21 -14 -40 -26 -43 -26 -9 0 -14 45 -6 50 13 8 -9 80 -33 107 -23
26 -27 19 61 116 24 26 42 53 39 60 -10 30 -39 13 -111 -65z"/>
<path d="M1030 695 c0 -9 5 -15 11 -13 6 2 11 8 11 13 0 5 -5 11 -11 13 -6 2
-11 -4 -11 -13z"/>
<path d="M1136 703 c-11 -11 -6 -23 9 -23 8 0 15 4 15 9 0 13 -16 22 -24 14z"/>
<path d="M1242 689 c2 -6 8 -10 13 -10 5 0 11 4 13 10 2 6 -4 11 -13 11 -9 0
-15 -5 -13 -11z"/>
<path d="M1350 675 c0 -8 5 -15 10 -15 6 0 10 7 10 15 0 8 -4 15 -10 15 -5 0
-10 -7 -10 -15z"/>
<path d="M1472 659 c2 -6 8 -10 13 -10 5 0 11 4 13 10 2 6 -4 11 -13 11 -9 0
-15 -5 -13 -11z"/>
<path d="M1630 655 c0 -9 5 -15 11 -13 6 2 11 8 11 13 0 5 -5 11 -11 13 -6 2
-11 -4 -11 -13z"/>
<path d="M1865 647 c4 -15 -3 -41 -19 -72 -33 -62 -35 -90 -3 -80 46 14 115
17 136 6 17 -10 21 -9 21 3 0 8 -4 18 -10 21 -5 3 -10 22 -10 41 0 50 -13 69
-60 88 -54 21 -61 20 -55 -7z"/>
<path d="M1000 635 c0 -9 5 -15 11 -13 6 2 11 8 11 13 0 5 -5 11 -11 13 -6 2
-11 -4 -11 -13z"/>
<path d="M1540 635 c0 -13 34 -91 45 -103 2 -2 12 4 23 13 19 17 19 18 -5 61
-25 44 -63 61 -63 29z"/>
<path d="M1823 633 c-26 -5 -39 -20 -48 -55 -5 -20 -2 -29 13 -37 18 -10 23
-5 46 35 27 48 32 65 19 63 -5 -1 -18 -4 -30 -6z"/>
<path d="M2298 617 c-31 -12 -37 -41 -12 -51 24 -9 85 4 91 20 7 18 -15 44
-36 43 -9 -1 -28 -6 -43 -12z"/>
<path d="M1300 598 c-5 -13 -19 -63 -30 -112 -23 -103 -20 -111 46 -121 43 -6
47 -9 69 -58 24 -51 25 -71 3 -49 -16 16 -43 15 -58 -3 -10 -12 -5 -27 25 -81
27 -48 34 -69 26 -77 -19 -19 -13 -46 9 -40 25 7 36 26 45 78 4 22 14 51 22
65 9 16 12 18 8 5 -4 -11 -11 -42 -16 -70 -10 -55 -45 -95 -83 -95 -33 0 -71
46 -101 121 -42 105 -74 129 -124 90 -33 -25 -19 -49 15 -26 14 9 29 13 35 10
5 -4 30 -49 55 -101 37 -78 51 -98 79 -111 29 -14 41 -15 75 -4 34 10 45 20
61 54 10 23 19 53 19 67 0 14 5 32 11 40 8 12 9 9 5 -13 -7 -28 1 -33 47 -29
13 1 16 -3 12 -21 -8 -32 15 -49 62 -45 43 3 58 32 27 55 -17 12 -17 16 -1 84
13 54 15 75 6 85 -16 19 -29 17 -57 -8 l-25 -23 7 55 c9 64 13 71 66 95 22 10
40 21 40 24 0 4 -13 15 -30 24 -16 10 -30 13 -30 8 0 -22 -119 -72 -173 -73
-59 -1 -137 18 -137 33 0 6 9 46 20 90 12 44 18 84 15 89 -11 18 -35 11 -45
-12z"/>
<path d="M896 546 c-38 -35 -43 -56 -26 -102 7 -17 7 -31 1 -37 -5 -5 -7 -15
-4 -22 3 -10 14 -7 40 11 26 17 50 24 84 24 26 0 51 4 54 10 3 5 -17 35 -46
65 -33 35 -49 60 -45 70 10 26 -21 17 -58 -19z"/>
<path d="M960 553 c0 -5 18 -25 40 -47 33 -32 42 -36 55 -26 34 28 -5 80 -59
80 -20 0 -36 -3 -36 -7z"/>
<path d="M1384 504 c-24 -25 -44 -49 -44 -53 0 -40 141 -50 201 -15 44 26 43
45 -5 83 -58 47 -97 43 -152 -15z"/>
<path d="M190 285 c0 -27 28 -40 71 -33 36 5 32 21 -10 41 -50 23 -61 22 -61
-8z"/>
<path d="M2153 169 c-24 -11 -43 -24 -43 -28 0 -24 79 -21 100 4 10 12 4 46
-9 44 -3 0 -25 -9 -48 -20z"/>
<path d="M674 105 c-10 -26 3 -42 41 -49 36 -7 65 5 65 26 0 10 -61 38 -85 38
-9 0 -18 -7 -21 -15z"/>
</g>
</svg>
