<?xml version="1.0" standalone="no"?>
<!DOCTYPE svg PUBLIC "-//W3C//DTD SVG 20010904//EN"
 "http://www.w3.org/TR/2001/REC-SVG-20010904/DTD/svg10.dtd">
<svg version="1.0" xmlns="http://www.w3.org/2000/svg"
 width="600.000000pt" height="579.000000pt" viewBox="0 0 600.000000 579.000000"
 preserveAspectRatio="xMidYMid meet">

<g transform="translate(0.000000,579.000000) scale(0.100000,-0.100000)"
fill="#000000" stroke="none">
<path d="M236 5750 c-20 -22 -36 -44 -36 -49 0 -5 147 -149 328 -320 l327
-310 50 50 50 50 -71 67 c-39 37 -186 176 -327 310 -141 133 -263 242 -270
242 -8 0 -31 -18 -51 -40z"/>
<path d="M966 5061 l-47 -48 263 -249 c335 -316 889 -839 1172 -1107 199 -188
221 -212 232 -253 6 -24 22 -56 35 -71 27 -28 93 -62 124 -63 18 0 249 -213
833 -768 140 -133 155 -144 165 -127 6 11 25 35 44 54 18 18 33 34 33 36 0 2
-175 168 -390 371 -214 202 -388 369 -386 371 6 6 1329 -249 1339 -257 5 -4
-15 -41 -44 -81 -103 -145 -251 -399 -232 -399 5 0 109 -18 233 -40 l225 -39
75 46 c147 91 307 207 416 302 l35 31 -55 50 c-62 57 -119 138 -144 205 -9 25
-25 48 -35 51 -33 10 -88 66 -112 114 l-23 46 -139 26 c-246 48 -1493 288
-1651 318 -176 34 -211 36 -253 14 -25 -13 -33 -13 -47 -2 -16 13 -884 830
-1359 1280 -138 131 -253 238 -255 238 -2 0 -25 -22 -52 -49z"/>
<path d="M5155 4091 c-6 -21 6 -83 29 -148 8 -24 14 -43 12 -43 -1 0 -19 24
-39 53 -52 75 -131 150 -153 145 -30 -5 -28 -62 4 -153 16 -44 32 -89 37 -99
5 -11 -21 10 -57 47 -36 37 -73 67 -82 67 -38 0 -27 -85 30 -224 l24 -59 -55
52 c-29 28 -61 51 -69 51 -34 0 -15 -108 43 -242 l20 -47 63 29 c81 37 211 75
313 89 44 7 95 14 112 17 25 4 34 11 39 30 7 28 -11 55 -31 48 -7 -3 -16 -17
-19 -30 -5 -19 -12 -25 -29 -22 -32 4 -36 53 -7 83 65 69 164 8 146 -89 -9
-45 -45 -74 -104 -81 -147 -18 -296 -57 -440 -116 -28 -12 -34 -12 -42 1 -6 8
-8 20 -5 27 5 15 -72 86 -85 78 -14 -9 -12 -54 5 -113 15 -48 14 -53 -5 -84
-22 -37 -27 -106 -9 -141 20 -38 61 -76 96 -88 18 -6 33 -16 33 -24 0 -7 18
-49 40 -93 71 -142 211 -244 372 -273 238 -43 489 109 564 341 9 30 32 72 50
92 37 41 50 89 39 145 -5 27 -22 52 -60 89 -29 28 -58 67 -64 87 -7 20 -20 38
-29 41 -19 6 -128 22 -213 31 -66 7 -97 33 -105 87 -12 70 50 131 109 109 54
-21 77 -102 30 -109 -15 -2 -23 4 -28 20 -4 13 -13 26 -19 30 -14 9 -36 -10
-36 -31 0 -35 18 -43 106 -52 49 -5 102 -12 117 -15 l28 -6 -32 64 c-41 81
-111 190 -161 250 -63 75 -110 77 -89 2 6 -21 9 -39 7 -41 -2 -2 -24 25 -49
60 -25 34 -64 80 -86 100 -70 64 -95 43 -69 -57 9 -34 15 -62 14 -64 -2 -1
-20 22 -40 52 -44 63 -128 146 -150 146 -8 0 -17 -8 -21 -19z m241 -611 c23
-12 50 -33 59 -47 l17 -25 36 35 c43 42 78 57 132 57 50 0 88 -15 124 -48 97
-92 62 -268 -62 -306 -21 -7 -22 -11 -16 -71 6 -57 4 -71 -20 -118 -30 -62
-78 -100 -146 -117 -160 -40 -304 127 -244 283 3 10 -3 17 -21 21 -44 11 -74
36 -102 83 -51 88 -16 204 77 254 45 25 113 24 166 -1z"/>
<path d="M5286 3345 c-20 -20 -20 -28 -1 -64 25 -49 87 -57 125 -16 19 20 22
30 14 43 -24 38 -113 62 -138 37z"/>
<path d="M5656 3348 c-42 -9 -76 -33 -76 -53 0 -20 45 -55 72 -55 40 0 57 10
74 42 29 56 2 81 -70 66z"/>
<path d="M5382 3010 c-39 -18 -42 -21 -30 -40 15 -23 24 -24 58 -5 36 20 99
18 145 -5 38 -19 41 -19 52 -3 19 25 17 29 -30 52 -56 27 -137 27 -195 1z"/>
<path d="M5214 2679 c-28 -31 -235 -196 -332 -263 -46 -32 -82 -60 -80 -61 11
-11 371 -66 379 -58 5 5 12 39 16 76 l6 67 34 0 c32 0 34 -2 29 -27 -2 -16 -8
-50 -11 -78 -3 -27 -10 -66 -16 -86 l-9 -36 -132 23 c-73 12 -358 62 -633 109
-317 55 -516 85 -542 82 -113 -12 -177 -141 -123 -246 37 -74 25 -71 812 -207
542 -94 734 -123 768 -118 86 12 133 85 185 293 46 181 54 352 23 494 -8 39
-13 47 -26 42 -53 -22 -249 -15 -316 11 -7 3 -21 -5 -32 -17z"/>
<path d="M1430 2455 l0 -25 858 2 857 3 3 23 3 22 -860 0 -861 0 0 -25z"/>
<path d="M0 2325 l0 -25 1233 2 1232 3 3 23 3 22 -1235 0 -1236 0 0 -25z"/>
<path d="M1077 2213 c-4 -3 -7 -15 -7 -25 0 -17 33 -18 860 -18 l860 0 0 25 0
25 -853 0 c-470 0 -857 -3 -860 -7z"/>
<path d="M4085 1990 c-11 -5 -60 -24 -109 -43 l-89 -34 -107 -432 c-59 -237
-109 -433 -111 -435 -2 -1 -122 -74 -267 -160 -257 -154 -264 -157 -283 -140
-29 26 -87 24 -110 -5 -37 -46 -27 -72 117 -300 75 -119 146 -226 157 -239 14
-15 32 -22 57 -22 45 0 71 25 79 76 6 36 13 40 311 220 168 101 310 185 315
187 6 2 -15 31 -46 63 -51 55 -119 147 -148 202 -8 16 12 5 69 -37 89 -65 205
-129 215 -119 3 3 40 140 81 304 42 165 77 300 79 302 2 2 27 -10 56 -26 30
-16 109 -48 177 -72 67 -23 122 -46 122 -50 0 -4 -7 -13 -15 -20 -37 -31 -20
-73 126 -303 77 -122 150 -230 161 -239 47 -41 128 -2 128 61 0 28 9 34 253
161 251 131 292 158 327 215 25 40 43 122 35 162 l-6 32 -44 -20 c-59 -26
-175 -55 -255 -63 l-65 -7 92 53 c128 74 218 145 204 162 -23 27 -116 67 -363
156 -192 69 -258 97 -258 109 1 9 7 45 15 81 7 35 12 67 9 71 -2 4 -25 10 -51
14 -54 7 -787 132 -818 139 -11 2 -29 0 -40 -4z"/>
<path d="M3665 1604 c-151 -63 -239 -79 -430 -77 -93 0 -262 10 -375 22 -330
33 -524 44 -695 38 -412 -15 -721 -109 -990 -302 -92 -65 -105 -110 -47 -155
34 -28 53 -22 149 44 283 195 628 278 1083 263 96 -3 297 -18 445 -33 299 -29
564 -35 660 -15 109 22 236 64 244 80 11 21 44 161 40 165 -2 2 -40 -12 -84
-30z"/>
<path d="M4512 976 c-96 -51 -129 -78 -148 -123 -51 -120 36 -253 166 -253 28
0 72 16 155 57 63 32 115 61 115 65 0 15 -182 293 -193 295 -7 2 -50 -17 -95
-41z"/>
<path d="M2800 434 c-198 -120 -205 -125 -231 -176 -24 -47 -24 -101 0 -153
22 -48 44 -69 94 -90 75 -31 98 -24 303 96 104 61 194 116 200 123 9 8 -11 47
-81 156 -51 79 -97 145 -101 147 -5 1 -88 -45 -184 -103z"/>
</g>
</svg>
