<?xml version="1.0" standalone="no"?>
<!DOCTYPE svg PUBLIC "-//W3C//DTD SVG 20010904//EN"
 "http://www.w3.org/TR/2001/REC-SVG-20010904/DTD/svg10.dtd">
<svg version="1.0" xmlns="http://www.w3.org/2000/svg"
 width="256.000000pt" height="256.000000pt" viewBox="0 0 256.000000 256.000000"
 preserveAspectRatio="xMidYMid meet">

<g transform="translate(0.000000,256.000000) scale(0.100000,-0.100000)"
fill="#000000" stroke="none">
<path d="M1230 2556 c0 -2 -9 -48 -20 -101 -27 -131 -28 -126 20 -119 22 4 40
4 40 2 0 -3 -13 -49 -30 -103 -16 -55 -27 -101 -25 -103 2 -3 9 6 14 19 5 13
21 53 36 89 15 36 34 80 42 98 l14 34 -48 -3 c-26 -1 -47 2 -47 7 1 5 12 44
24 88 18 64 19 80 8 87 -14 9 -28 12 -28 5z"/>
<path d="M994 2444 c-12 -5 -10 -14 27 -157 l10 -38 28 21 29 20 6 -23 c3 -13
8 -49 12 -80 11 -95 21 -73 16 36 -2 56 -6 104 -8 106 -1 2 -16 -6 -32 -18
-36 -25 -42 -26 -42 -4 0 32 -22 143 -29 142 -3 0 -11 -3 -17 -5z"/>
<path d="M1408 2324 c-32 -36 -58 -69 -58 -74 0 -4 13 -13 30 -18 l29 -11 -67
-66 c-37 -37 -60 -64 -52 -59 26 13 160 118 160 125 0 4 -13 12 -30 19 -16 7
-30 15 -30 19 0 4 25 31 55 61 38 38 51 56 42 62 -19 12 -18 12 -79 -58z"/>
<path d="M1523 2063 c-40 -2 -73 -7 -73 -11 0 -4 43 -6 95 -4 52 2 95 8 95 13
0 5 -10 8 -22 7 -13 -1 -56 -4 -95 -5z"/>
<path d="M978 2055 c-7 -7 9 -80 24 -109 7 -14 -1 -10 -26 13 -19 19 -39 32
-43 28 -6 -7 7 -75 22 -111 8 -17 6 -17 -13 2 -12 12 -26 22 -32 22 -15 0 -12
-42 5 -83 20 -48 19 -54 -5 -32 -19 18 -20 17 -20 -7 0 -21 24 -95 35 -106 2
-2 31 19 66 47 35 28 67 51 71 51 4 0 8 9 8 20 0 11 -4 20 -9 20 -5 0 -11 -9
-14 -20 -9 -33 -29 -23 -25 13 2 25 8 33 26 35 31 5 52 -15 52 -47 0 -20 -14
-36 -65 -74 -64 -48 -115 -122 -115 -168 0 -32 44 -69 83 -69 21 0 41 -7 52
-20 54 -59 197 -67 281 -14 72 44 108 108 112 198 2 39 10 85 18 103 15 34 8
69 -20 92 -29 24 -117 24 -182 0 -33 -12 -74 -24 -91 -26 -28 -4 -34 -1 -45
22 -20 44 22 84 57 55 23 -19 18 -33 -10 -26 -19 5 -25 2 -25 -10 0 -12 6 -15
28 -11 25 5 153 47 161 53 6 5 -53 82 -71 93 -15 10 -18 7 -18 -15 0 -24 -2
-23 -33 18 -18 23 -41 45 -51 46 -16 4 -18 -1 -13 -32 l6 -36 -33 43 c-52 68
-84 57 -56 -20 9 -23 4 -20 -30 20 -40 46 -51 53 -62 42z m358 -300 c20 -20
25 -34 23 -73 -1 -26 4 -60 10 -75 16 -41 -2 -99 -40 -131 -53 -45 -148 -29
-180 31 -7 13 -21 23 -31 23 -10 0 -30 11 -43 25 -34 33 -34 87 1 122 22 22
32 25 70 20 38 -4 44 -2 44 15 0 10 12 30 26 43 36 34 87 33 120 0z"/>
<path d="M1266 1701 c-20 -22 -15 -51 7 -51 20 0 39 26 35 46 -5 25 -22 27
-42 5z"/>
<path d="M1111 1621 c-12 -8 -12 -12 -2 -25 23 -28 71 -13 71 21 0 15 -48 17
-69 4z"/>
<path d="M1243 1599 c-62 -31 -70 -43 -50 -85 l17 -34 21 21 c11 11 42 31 69
43 47 22 47 22 33 49 -16 32 -35 34 -90 6z"/>
<path d="M1870 2045 c0 -2 12 -16 26 -30 23 -23 26 -33 21 -71 -4 -43 5 -59
17 -28 12 32 5 82 -15 108 -17 22 -49 36 -49 21z"/>
<path d="M636 2008 c24 -80 68 -109 135 -89 21 6 39 17 39 22 0 7 -8 8 -17 4
-69 -26 -113 -10 -134 50 -14 38 -35 49 -23 13z"/>
<path d="M1425 2020 c-59 -6 -58 -7 25 -7 47 -1 123 2 170 6 l85 8 -110 0
c-60 0 -137 -3 -170 -7z"/>
<path d="M585 2003 c33 -81 26 -111 -32 -142 -31 -16 -34 -20 -16 -21 35 0 84
49 85 87 1 36 -20 93 -34 93 -6 0 -7 -8 -3 -17z"/>
<path d="M1840 2011 c0 -5 7 -14 15 -21 8 -7 15 -28 15 -47 0 -20 4 -32 10
-28 13 8 13 51 0 74 -10 20 -40 36 -40 22z"/>
<path d="M1545 1980 c-66 -4 -141 -8 -168 -9 l-47 -1 26 -39 c18 -28 35 -41
59 -45 20 -4 45 -20 64 -41 29 -33 32 -34 82 -28 l52 6 -30 -54 c-104 -181
-111 -198 -102 -242 4 -23 8 -78 8 -122 1 -227 -94 -406 -272 -509 -37 -21
-64 -42 -61 -47 4 -8 -40 -4 -73 6 -26 8 -124 -15 -177 -41 -31 -15 -104 -67
-164 -117 -125 -104 -196 -142 -250 -133 -61 9 -77 35 -72 113 9 158 6 201
-16 223 -31 32 -89 42 -115 21 -26 -21 -16 -49 20 -57 56 -12 54 -9 45 -87
-14 -118 -11 -183 12 -214 34 -45 68 -64 127 -70 50 -5 64 -2 119 25 35 17
112 72 173 122 132 109 178 133 265 138 l65 3 -118 -64 c-131 -71 -129 -65
-36 -117 46 -25 50 -30 27 -30 -14 0 -55 9 -90 20 -34 11 -64 20 -66 20 -2 0
-21 -38 -43 -84 -31 -64 -47 -86 -65 -90 -27 -7 -34 -46 -11 -64 20 -16 235
-112 251 -112 23 0 39 36 26 60 -8 16 -4 31 19 77 l29 58 174 89 c95 49 184
97 198 107 26 17 29 16 260 -65 l235 -82 22 -55 c19 -48 20 -56 7 -71 -21 -22
-2 -58 29 -57 12 0 76 19 142 42 111 39 120 44 123 69 3 22 -2 30 -21 37 -18
7 -31 29 -56 100 -18 50 -34 91 -36 91 -2 0 -32 -13 -67 -30 -86 -41 -99 -38
-42 10 56 46 71 68 52 75 -7 3 -101 36 -208 74 l-194 69 -39 283 -39 284 126
227 c136 245 145 270 101 313 -27 28 -30 28 -260 15z"/>
<path d="M753 1870 c-18 -11 -35 -31 -39 -46 -7 -28 10 -99 27 -110 18 -11 20
2 4 32 -23 44 -19 79 11 103 15 12 33 21 40 21 7 0 16 5 19 10 11 17 -28 11
-62 -10z"/>
<path d="M558 1808 c-16 -5 -28 -14 -28 -20 0 -6 7 -7 18 -2 9 4 33 9 53 12
42 5 74 -21 84 -69 4 -16 11 -29 17 -29 6 0 7 7 4 16 -3 9 -6 22 -6 31 0 8
-13 28 -29 44 -31 31 -63 36 -113 17z"/>
<path d="M1695 1569 l-77 -141 24 -156 c12 -87 24 -146 26 -132 1 14 -6 84
-17 155 l-19 130 75 138 c42 76 73 140 70 143 -2 2 -39 -59 -82 -137z"/>
<path d="M862 1668 c-17 -22 -240 -375 -256 -407 -9 -16 -16 -39 -16 -51 0
-30 44 -70 77 -70 15 0 108 24 206 54 97 29 179 51 181 47 2 -3 21 -72 41
-153 21 -82 42 -148 47 -148 20 0 101 55 144 97 82 83 133 220 134 361 0 64
-7 74 -31 45 -50 -59 -208 -83 -293 -43 l-43 21 -82 -26 c-45 -15 -87 -25 -92
-23 -5 2 4 25 21 52 28 44 30 50 16 65 -23 26 -30 77 -16 111 10 25 10 36 0
56 -15 27 -23 30 -38 12z"/>
<path d="M720 1543 c-41 -64 -83 -129 -93 -145 -11 -15 -15 -28 -10 -28 4 1
42 53 83 117 41 64 83 129 93 145 11 15 15 28 10 28 -4 0 -42 -53 -83 -117z"/>
<path d="M1716 1538 l-58 -102 12 -105 c7 -58 16 -113 21 -121 11 -20 11 -21
-6 110 l-15 114 56 96 c31 52 59 98 61 103 2 4 1 7 -4 7 -4 0 -34 -46 -67
-102z"/>
<path d="M665 1520 c-31 -45 -55 -84 -52 -86 3 -3 30 32 62 76 31 45 55 84 52
86 -3 3 -30 -32 -62 -76z"/>
<path d="M480 1174 c0 -37 5 -51 30 -75 16 -17 35 -27 41 -23 7 4 0 15 -20 31
-26 21 -31 31 -31 69 0 24 -4 44 -10 44 -5 0 -10 -21 -10 -46z"/>
<path d="M526 1195 c-8 -21 10 -62 32 -74 30 -16 34 0 6 26 -18 16 -23 29 -19
43 7 23 -10 28 -19 5z"/>
<path d="M883 1167 c-73 -22 -133 -44 -133 -48 0 -4 35 3 78 17 155 49 184 56
192 48 4 -5 18 -51 30 -101 13 -51 27 -93 31 -93 4 0 -4 42 -17 93 -33 122
-34 127 -42 126 -4 0 -67 -19 -139 -42z"/>
<path d="M960 1163 c-8 -3 -26 -10 -39 -15 -13 -5 -22 -11 -19 -13 3 -3 24 2
48 10 23 8 44 15 45 15 2 0 11 -31 20 -70 18 -75 32 -95 21 -32 -17 105 -30
122 -76 105z"/>
<path d="M1785 893 c6 -6 48 -23 95 -38 47 -15 92 -30 100 -33 10 -3 12 -2 5
5 -5 6 -48 23 -95 38 -47 15 -92 30 -100 33 -10 3 -12 2 -5 -5z"/>
<path d="M1725 873 c13 -13 272 -103 293 -102 10 0 -44 22 -118 48 -167 60
-188 66 -175 54z"/>
<path d="M2135 780 c3 -5 13 -10 21 -10 24 0 54 -38 54 -69 0 -17 5 -33 10
-36 6 -4 10 9 10 31 0 45 -40 94 -77 94 -14 0 -21 -4 -18 -10z"/>
<path d="M2110 740 c0 -5 6 -10 13 -10 19 0 47 -33 47 -53 0 -9 5 -17 10 -17
19 0 10 41 -15 65 -24 25 -55 33 -55 15z"/>
<path d="M440 648 c0 -28 37 -58 70 -58 17 0 30 5 30 11 0 5 -5 7 -11 4 -19
-12 -58 5 -73 33 -11 19 -15 22 -16 10z"/>
<path d="M305 610 c8 -59 45 -115 95 -140 30 -15 57 -20 112 -18 l73 1 -75 7
c-118 10 -161 42 -194 145 l-16 50 5 -45z"/>
<path d="M1230 509 c-159 -82 -190 -105 -190 -143 0 -16 4 -13 18 14 15 30 39
46 174 115 86 44 160 84 164 88 19 19 -24 0 -166 -74z"/>
<path d="M287 543 c12 -34 54 -83 85 -99 45 -23 88 -34 88 -23 0 5 -7 9 -15 9
-45 0 -145 80 -145 116 0 8 -4 14 -10 14 -5 0 -7 -8 -3 -17z"/>
<path d="M1215 460 c-96 -52 -158 -100 -127 -100 5 0 12 6 15 14 3 8 58 42
121 76 64 34 116 63 116 66 0 9 -20 1 -125 -56z"/>
<path d="M2100 332 c-41 -13 -76 -26 -78 -27 -1 -1 18 -60 43 -131 31 -87 53
-136 71 -152 46 -40 112 -22 132 37 9 25 4 49 -34 157 -24 70 -47 131 -51 135
-5 3 -42 -5 -83 -19z"/>
<path d="M680 218 c-28 -59 -50 -117 -50 -136 0 -65 74 -104 128 -66 19 13
139 232 130 238 -12 8 -146 66 -152 66 -4 0 -29 -46 -56 -102z"/>
</g>
</svg>
