<?xml version="1.0" standalone="no"?>
<!DOCTYPE svg PUBLIC "-//W3C//DTD SVG 20010904//EN"
 "http://www.w3.org/TR/2001/REC-SVG-20010904/DTD/svg10.dtd">
<svg version="1.0" xmlns="http://www.w3.org/2000/svg"
 width="256.000000pt" height="256.000000pt" viewBox="0 0 256.000000 256.000000"
 preserveAspectRatio="xMidYMid meet">

<g transform="translate(0.000000,256.000000) scale(0.100000,-0.100000)"
fill="#000000" stroke="none">
<path d="M1020 2521 c-5 -11 -14 -44 -18 -73 l-8 -53 -12 47 c-20 79 -45 70
-62 -22 -10 -55 -20 -77 -20 -46 0 10 -5 26 -11 37 -15 29 -36 8 -44 -44 -4
-23 -9 -51 -12 -62 -5 -18 -6 -18 -15 4 -6 17 -12 21 -19 14 -13 -13 -28 -77
-29 -119 l0 -32 39 14 c22 7 69 16 105 20 55 6 66 10 66 25 0 24 -9 24 -26 2
-10 -14 -15 -15 -25 -6 -9 9 -8 17 5 37 21 33 51 33 73 0 15 -24 15 -29 2 -52
-11 -21 -25 -28 -64 -34 -141 -21 -163 -30 -227 -90 -36 -34 -38 -79 -3 -113
13 -14 29 -25 35 -25 6 0 19 -20 29 -44 46 -106 141 -169 256 -170 117 -1 222
67 261 170 9 24 22 44 29 44 14 0 50 38 58 63 10 27 -18 85 -47 99 -15 6 -26
15 -26 19 0 11 -92 36 -163 45 -64 7 -87 23 -87 59 0 24 23 55 41 55 22 0 49
-22 49 -40 0 -28 -17 -34 -30 -9 -8 15 -15 18 -22 11 -22 -22 0 -39 62 -45 35
-4 80 -12 101 -19 22 -6 41 -9 44 -7 7 7 -15 133 -25 143 -4 4 -15 -4 -23 -19
-14 -28 -14 -27 -21 30 -11 97 -35 122 -57 58 l-13 -38 -8 53 c-4 29 -13 62
-19 73 -15 29 -37 7 -46 -45 l-7 -41 -12 55 c-19 92 -33 110 -54 71z m-6 -432
l26 -20 26 20 c29 23 83 28 115 11 52 -28 61 -116 15 -159 -14 -13 -26 -40
-30 -63 -15 -93 -115 -139 -197 -91 -33 20 -59 63 -59 98 0 16 -12 38 -30 57
-23 23 -30 38 -30 70 0 82 98 129 164 77z"/>
<path d="M910 2012 c0 -38 46 -56 70 -27 18 21 -4 45 -41 45 -21 0 -29 -5 -29
-18z"/>
<path d="M1097 2019 c-13 -8 -15 -14 -7 -30 20 -37 80 -15 80 30 0 14 -49 14
-73 0z"/>
<path d="M985 1922 c-23 -6 -31 -13 -33 -35 -6 -49 1 -56 47 -44 29 8 52 8 81
0 l40 -10 0 38 c0 21 -3 40 -7 42 -16 10 -99 15 -128 9z"/>
<path d="M442 2310 c-15 -14 -29 -19 -46 -14 -34 8 -82 -20 -95 -57 -14 -40 7
-94 43 -111 15 -6 26 -20 26 -30 0 -31 45 -68 83 -68 35 0 87 32 87 53 1 28
15 35 63 27 26 -4 47 -3 47 2 0 4 -3 8 -7 8 -5 0 -41 6 -80 14 -68 13 -100 5
-52 -12 l21 -8 -24 -28 c-15 -18 -34 -28 -51 -28 -33 0 -67 27 -67 54 0 10 -4
18 -10 18 -19 0 -50 40 -50 64 0 57 61 92 113 64 20 -10 21 -10 7 6 -13 16
-12 20 5 32 28 21 53 17 81 -11 33 -33 31 -82 -3 -77 -46 6 -21 -15 52 -45 81
-34 103 -31 31 4 -44 22 -44 22 -39 67 5 38 2 48 -20 70 -32 32 -84 35 -115 6z"/>
<path d="M1527 2310 c-30 -24 -40 -60 -27 -94 9 -24 6 -28 -41 -52 -75 -38
-54 -39 34 -1 74 31 104 56 52 43 -23 -6 -25 -4 -25 28 0 37 36 76 69 76 25 0
57 -25 43 -34 -7 -4 -12 -12 -12 -19 0 -8 3 -8 12 1 7 7 24 12 39 12 69 0 98
-81 46 -126 -15 -13 -27 -29 -27 -37 0 -47 -89 -67 -122 -28 -23 29 -23 37 2
44 11 3 20 11 20 17 0 7 -6 10 -12 7 -7 -2 -46 -10 -85 -17 -40 -7 -73 -17
-73 -21 0 -8 25 -6 88 7 16 3 22 0 22 -14 0 -31 48 -72 85 -72 37 0 80 30 91
62 3 12 22 36 40 54 42 38 45 80 10 120 -17 21 -33 28 -62 29 -22 0 -51 9 -64
18 -32 23 -72 22 -103 -3z"/>
<path d="M709 1845 c-92 -48 -160 -154 -204 -317 -14 -51 -32 -99 -40 -107
-24 -25 -155 -20 -225 7 -73 29 -96 28 -131 -7 -31 -31 -38 -75 -19 -112 24
-45 162 -89 280 -90 92 -1 142 12 201 50 55 37 81 82 107 186 20 81 50 160 57
153 2 -2 9 -62 16 -133 6 -72 13 -132 15 -134 14 -16 260 222 330 320 l32 44
-92 0 c-82 0 -96 3 -144 29 -50 28 -87 62 -122 113 l-15 22 -46 -24z"/>
<path d="M1275 1773 c-135 -206 -305 -394 -438 -483 l-67 -45 3 -54 2 -55
-197 -140 c-108 -78 -200 -144 -204 -148 -11 -12 16 -38 74 -70 29 -17 51 -32
50 -34 -3 -3 -81 12 -148 28 -12 2 -18 -24 -31 -138 -13 -118 -20 -145 -38
-163 -11 -11 -21 -25 -21 -30 0 -16 30 -41 50 -41 10 0 81 -7 159 -15 77 -8
147 -12 156 -9 18 7 20 47 2 62 -10 9 -10 31 -2 112 7 56 16 105 22 108 5 4
94 67 196 141 129 91 193 131 204 127 19 -8 381 -264 388 -275 2 -4 9 -49 15
-100 10 -81 10 -95 -4 -110 -20 -22 -20 -45 -2 -60 11 -9 53 -8 178 5 89 9
169 21 176 27 18 14 15 44 -6 59 -15 10 -21 36 -31 128 -6 63 -14 129 -17 146
l-5 32 -42 -13 c-23 -6 -62 -15 -87 -19 l-45 -6 43 25 c87 50 104 66 90 82 -9
11 -315 234 -391 285 -10 6 15 394 29 458 l6 25 15 -28 c8 -16 25 -71 38 -123
14 -51 31 -107 39 -123 23 -44 85 -90 145 -107 74 -22 225 -15 306 14 64 23
115 69 115 103 0 35 -28 76 -60 89 -28 11 -40 10 -98 -9 -89 -29 -161 -36
-205 -22 -31 11 -38 19 -47 54 -38 148 -75 235 -127 304 -23 30 -107 93 -124
93 -4 0 -33 -39 -64 -87z"/>
<path d="M73 1575 c-18 -7 -42 -29 -53 -47 -24 -40 -25 -48 -5 -48 8 0 15 7
15 15 0 32 47 65 90 65 29 0 40 4 38 13 -6 18 -48 19 -85 2z"/>
<path d="M1922 1583 c-23 -9 -1 -23 37 -23 40 0 75 -24 86 -60 7 -23 25 -27
25 -5 0 55 -92 111 -148 88z"/>
<path d="M71 1504 c-12 -15 -21 -33 -21 -40 0 -23 20 -16 29 10 10 24 30 36
62 36 10 0 19 5 19 10 0 6 -15 10 -34 10 -25 0 -40 -7 -55 -26z"/>
<path d="M1920 1520 c0 -5 11 -10 23 -10 25 0 57 -28 57 -48 0 -7 5 -12 10
-12 17 0 11 39 -10 60 -21 21 -80 28 -80 10z"/>
<path d="M1027 883 c-7 -12 21 -113 49 -172 57 -125 142 -187 273 -198 65 -5
71 -4 71 13 0 47 -12 64 -44 64 -113 0 -195 66 -241 192 -15 40 -31 65 -55 83
-36 26 -46 30 -53 18z"/>
<path d="M1840 623 l-45 -4 3 -38 4 -39 171 -5 c186 -5 253 -18 366 -68 35
-16 85 -45 112 -64 53 -38 80 -43 99 -20 20 24 3 48 -62 92 -105 69 -207 110
-329 132 -67 12 -256 20 -319 14z"/>
<path d="M337 313 c-4 -27 -10 -85 -13 -130 -6 -73 -5 -84 15 -111 29 -41 80
-58 118 -39 56 29 64 48 79 178 8 67 12 124 10 127 -5 5 -136 21 -177 22 -24
0 -27 -4 -32 -47z"/>
<path d="M1597 350 c-32 -4 -61 -10 -64 -14 -10 -10 17 -227 32 -256 17 -32
77 -64 105 -55 37 12 79 56 84 88 3 18 0 79 -7 137 l-12 105 -40 1 c-22 1 -66
-2 -98 -6z"/>
</g>
</svg>
