<?xml version="1.0" standalone="no"?>
<!DOCTYPE svg PUBLIC "-//W3C//DTD SVG 20010904//EN"
 "http://www.w3.org/TR/2001/REC-SVG-20010904/DTD/svg10.dtd">
<svg version="1.0" xmlns="http://www.w3.org/2000/svg"
 width="256.000000pt" height="256.000000pt" viewBox="0 0 256.000000 256.000000"
 preserveAspectRatio="xMidYMid meet">

<g transform="translate(0.000000,256.000000) scale(0.100000,-0.100000)"
fill="#000000" stroke="none">
<path d="M1683 2043 c-70 -85 -79 -100 -67 -112 15 -16 12 -19 132 125 39 46
48 64 40 72 -7 7 -15 12 -18 12 -3 0 -42 -44 -87 -97z"/>
<path d="M1496 1819 c-47 -57 -86 -106 -86 -110 0 -7 31 -22 35 -17 0 2 35 44
76 93 92 110 92 110 75 124 -12 10 -30 -7 -100 -90z"/>
<path d="M436 1811 c-13 -15 -26 -18 -51 -14 -18 3 -35 1 -39 -5 -3 -5 13 -12
37 -15 33 -5 46 -2 63 14 11 10 26 19 32 19 7 0 12 5 12 10 0 17 -36 11 -54
-9z"/>
<path d="M1641 1718 c-19 -18 -23 -19 -18 -5 9 24 -12 21 -41 -5 -14 -13 -22
-17 -18 -10 11 19 -9 14 -29 -8 -21 -23 -21 -22 22 -44 36 -18 53 -20 53 -6 0
5 -7 7 -15 4 -8 -4 -15 -2 -15 4 0 17 28 21 41 6 10 -12 9 -18 -4 -31 -15 -15
-20 -15 -68 8 -38 17 -53 21 -57 11 -2 -6 -9 -12 -17 -12 -29 0 -50 -59 -47
-138 3 -96 118 -162 206 -117 15 8 40 15 55 15 76 1 68 69 -20 159 -40 42 -43
71 -9 71 23 0 34 -16 24 -32 -5 -8 -9 -6 -14 7 -4 10 -9 14 -12 9 -3 -5 14
-31 38 -57 l43 -48 16 30 c19 37 19 45 0 38 -12 -5 -12 0 2 28 19 39 12 55
-13 34 -16 -13 -16 -12 -6 8 7 12 12 29 12 38 0 13 -4 14 -21 5 -19 -10 -20
-10 -10 9 24 44 5 55 -29 19 l-21 -23 6 28 c9 33 -3 35 -34 5z m-63 -138 c9
-16 22 -29 27 -29 25 3 36 -3 51 -26 15 -23 15 -27 0 -50 -10 -15 -26 -25 -40
-25 -13 0 -26 -7 -30 -15 -3 -8 -17 -20 -32 -25 -52 -20 -107 48 -71 88 11 12
13 22 7 32 -15 23 -12 38 10 60 29 29 58 25 78 -10z"/>
<path d="M1514 1569 c-3 -6 0 -17 7 -25 18 -17 44 -2 36 20 -7 18 -33 21 -43
5z"/>
<path d="M1601 1520 c-17 -10 -7 -40 13 -40 7 0 16 6 19 14 8 19 -15 37 -32
26z"/>
<path d="M1492 1475 c3 -20 48 -49 58 -38 3 3 -1 8 -8 10 -7 3 -22 15 -34 27
-19 20 -20 20 -16 1z"/>
<path d="M254 1700 c-12 -5 -25 -14 -29 -20 -4 -6 -20 -8 -39 -5 -23 5 -36 2
-46 -10 -12 -15 -11 -16 12 -10 15 4 35 2 46 -4 15 -8 23 -8 27 0 4 6 21 19
37 29 32 19 26 33 -8 20z"/>
<path d="M1808 1689 c-29 -11 -35 -23 -19 -34 18 -10 11 -108 -10 -143 -15
-26 -17 -38 -8 -53 5 -11 7 -29 4 -39 -7 -23 60 -109 85 -110 29 -1 115 -48
144 -79 36 -37 29 -39 -20 -6 -162 110 -387 3 -411 -194 l-6 -50 -43 4 c-25 2
-60 13 -79 25 -36 23 -75 76 -75 105 0 13 -5 16 -22 11 -92 -26 -145 -37 -228
-44 -99 -9 -185 -38 -196 -67 -15 -38 39 -67 246 -129 159 -49 285 -103 316
-137 15 -17 32 -19 153 -19 327 0 893 28 910 45 10 11 -9 15 -110 26 -57 6
-106 13 -108 14 -1 2 4 14 13 27 40 57 1 151 -68 164 -25 4 -33 10 -29 22 2
10 -5 34 -16 55 -19 38 -19 38 1 84 38 87 8 192 -71 248 -38 27 -51 30 -114
30 -40 0 -81 -4 -92 -8 -16 -7 -15 -5 4 11 50 41 128 52 186 28 43 -18 46 -7
14 57 -50 100 -141 158 -254 163 -38 2 -82 -1 -97 -7z"/>
<path d="M1327 1679 c-46 -27 -41 -88 14 -203 15 -33 27 -61 26 -62 -12 -10
-203 -74 -228 -76 l-32 -3 -33 99 c-33 99 -52 133 -61 110 -2 -6 -10 -20 -18
-30 -14 -17 -14 -15 -9 24 7 48 15 45 -96 32 -48 -5 -79 -5 -87 2 -27 22 -36
-3 -29 -79 4 -40 9 -80 13 -88 7 -19 27 -19 43 0 9 11 26 15 53 13 l40 -3 29
-85 c15 -46 28 -93 28 -105 0 -11 9 -35 21 -54 11 -18 19 -34 17 -35 -2 -2
-24 -10 -51 -20 -129 -48 -143 -157 -27 -216 21 -11 107 -40 191 -66 256 -77
359 -137 375 -218 6 -37 -8 -92 -37 -140 -13 -22 -15 -33 -7 -43 18 -22 26
-15 59 52 26 54 31 73 27 114 -12 119 -87 173 -361 262 -211 68 -261 90 -277
118 -15 28 -13 38 12 61 34 31 121 60 234 75 154 22 303 83 340 140 l15 23 58
-21 57 -21 35 27 c19 14 57 32 84 38 28 7 52 15 54 16 3 2 -8 16 -24 33 -31
32 -47 32 -141 3 -81 -26 -162 2 -205 69 -18 29 -20 44 -15 112 4 53 11 85 22
97 16 18 15 20 -27 39 -50 22 -57 23 -82 9z"/>
<path d="M410 1614 c-8 -8 -25 -14 -39 -14 -44 3 -61 0 -61 -9 0 -6 8 -9 18
-9 9 1 28 -1 42 -4 19 -5 34 1 60 23 30 25 31 29 13 29 -11 0 -26 -7 -33 -16z"/>
<path d="M1200 1466 c-40 -48 -70 -89 -67 -93 15 -15 57 13 104 72 43 52 51
68 45 86 -8 20 -15 15 -82 -65z"/>
<path d="M641 1520 c-35 -8 -51 -24 -51 -52 0 -49 78 -64 133 -26 18 13 33 23
35 24 1 0 -1 15 -4 32 -6 29 -10 32 -43 31 -20 -1 -51 -5 -70 -9z"/>
<path d="M727 1423 c-9 -9 -31 -57 -48 -106 -19 -51 -40 -92 -51 -98 -23 -12
-23 -35 0 -44 91 -37 152 -53 161 -41 6 7 8 16 5 19 -9 8 16 97 26 97 5 0 39
-18 78 -40 38 -22 71 -40 74 -40 7 0 -28 132 -47 176 -19 45 -58 64 -84 40
-27 -25 -54 -17 -70 22 -17 37 -21 38 -44 15z"/>
<path d="M1501 1216 c-12 -13 -43 -35 -67 -48 -49 -26 -53 -38 -24 -86 25 -40
75 -72 115 -72 29 0 31 2 27 33 -3 28 15 97 42 158 5 12 1 18 -17 23 -14 3
-31 8 -39 11 -8 3 -24 -5 -37 -19z"/>
<path d="M857 1173 c-9 -2 -24 -18 -33 -34 -8 -17 -26 -35 -39 -41 -17 -7 -29
-27 -41 -62 -29 -91 -97 -124 -149 -71 -29 28 -31 55 -10 115 8 23 15 46 15
51 0 17 -66 9 -102 -14 -50 -30 -76 -66 -91 -125 -12 -47 -14 -49 -32 -36 -69
51 -177 -37 -146 -118 l9 -25 -110 -11 c-106 -11 -127 -16 -117 -27 21 -20
606 -45 1064 -45 337 1 335 -1 74 80 -200 61 -261 90 -288 134 -40 65 -23 116
56 166 l43 28 -35 21 c-20 12 -39 20 -43 20 -4 -1 -15 -3 -25 -6z"/>
<path d="M621 1089 c-27 -72 -22 -106 16 -115 36 -9 53 4 73 56 34 87 34 86
-7 99 -21 7 -43 14 -49 17 -6 3 -21 -22 -33 -57z"/>
<path d="M2282 1128 c-26 -26 0 -88 36 -88 17 0 52 37 52 54 0 37 -61 61 -88
34z"/>
<path d="M312 1088 c-34 -34 6 -90 48 -68 35 19 20 80 -20 80 -9 0 -21 -5 -28
-12z"/>
<path d="M2383 1014 c-3 -8 1 -22 9 -30 12 -12 17 -12 33 -1 23 17 14 47 -15
47 -11 0 -23 -7 -27 -16z"/>
<path d="M99 899 c-9 -18 -7 -25 9 -41 23 -24 58 -17 67 13 14 44 -53 69 -76
28z"/>
<path d="M540 680 c-178 -9 -185 -10 -135 -21 59 -13 1065 -24 1065 -12 0 5
-8 17 -18 26 -17 15 -57 17 -393 15 -206 -1 -439 -5 -519 -8z"/>
<path d="M1550 678 c1 -37 11 -38 218 -29 112 5 205 11 208 14 7 7 -91 15
-273 22 -122 5 -153 3 -153 -7z"/>
</g>
</svg>
