<?xml version="1.0" standalone="no"?>
<!DOCTYPE svg PUBLIC "-//W3C//DTD SVG 20010904//EN"
 "http://www.w3.org/TR/2001/REC-SVG-20010904/DTD/svg10.dtd">
<svg version="1.0" xmlns="http://www.w3.org/2000/svg"
 width="256.000000pt" height="256.000000pt" viewBox="0 0 256.000000 256.000000"
 preserveAspectRatio="xMidYMid meet">

<g transform="translate(0.000000,256.000000) scale(0.100000,-0.100000)"
fill="#000000" stroke="none">
<path d="M144 2195 c-6 -15 140 -205 164 -213 7 -2 15 3 18 12 6 16 -149 216
-167 216 -5 0 -12 -7 -15 -15z"/>
<path d="M332 1968 c-7 -10 34 -66 168 -228 160 -194 177 -218 173 -246 -6
-37 17 -64 55 -64 22 0 44 -21 122 -116 52 -63 101 -122 107 -131 9 -12 18
-14 32 -7 18 8 12 19 -69 118 -49 61 -87 112 -85 114 2 3 40 -1 83 -8 l79 -12
71 36 c39 20 74 36 78 36 3 0 -6 -20 -21 -45 -27 -48 -78 -175 -70 -175 12 0
133 65 175 93 25 17 69 53 98 81 l52 49 -38 17 c-35 16 -72 52 -97 95 -10 17
-14 17 -70 0 -33 -9 -91 -31 -130 -49 l-70 -32 -126 20 -127 21 -181 220
c-100 121 -185 221 -190 223 -4 1 -13 -3 -19 -10z"/>
<path d="M1397 1913 c-4 -3 -7 -18 -7 -32 l-1 -26 -13 24 c-14 26 -22 20 -36
-27 -5 -16 -9 -20 -9 -9 -2 39 -31 8 -31 -34 0 -12 -5 -16 -14 -13 -11 4 -17
-5 -22 -31 -3 -20 -5 -38 -3 -40 2 -2 29 3 59 11 30 8 62 14 72 14 10 0 18 5
18 11 0 6 -7 9 -15 5 -9 -3 -15 0 -15 10 0 10 8 14 23 12 25 -3 31 -36 7 -49
-8 -4 -40 -12 -70 -18 -109 -22 -154 -77 -95 -115 14 -9 25 -22 25 -29 0 -22
66 -78 101 -86 77 -17 139 17 182 98 28 53 28 71 1 71 -20 0 -70 -60 -66 -78
2 -7 -4 -24 -13 -38 -31 -47 -115 -22 -115 34 0 12 -9 31 -20 42 -50 50 9 119
69 81 8 -5 21 -5 30 -1 9 5 25 12 36 15 18 7 17 8 -8 17 -21 7 -27 16 -25 32
3 24 38 30 46 7 3 -10 0 -12 -12 -8 -9 4 -16 2 -16 -3 0 -17 24 -10 53 15 26
23 37 43 17 30 -6 -4 -13 7 -16 24 -6 28 -24 44 -24 21 0 -5 -4 -10 -10 -10
-5 0 -10 11 -10 24 0 34 -18 42 -29 14 -8 -22 -9 -22 -15 10 -7 31 -16 39 -29
25z"/>
<path d="M1522 1764 c-24 -17 -29 -56 -9 -72 6 -5 26 -13 43 -16 35 -8 79 -50
119 -115 l27 -44 -76 7 c-72 6 -78 5 -110 -19 -18 -14 -38 -25 -45 -25 -6 0
-38 -27 -70 -59 -81 -82 -170 -146 -281 -201 -122 -60 -270 -143 -270 -150 0
-3 17 -16 38 -29 l37 -22 -31 5 c-18 3 -43 8 -56 11 -23 6 -27 0 -61 -74 -20
-45 -41 -81 -47 -81 -5 0 -10 -8 -10 -19 0 -13 21 -28 78 -53 80 -37 102 -36
96 5 -3 12 10 48 28 81 31 55 40 62 132 113 l99 54 112 -52 c99 -45 117 -58
150 -102 21 -28 38 -57 38 -64 0 -24 26 -13 42 17 8 16 29 40 45 52 17 12 30
28 30 36 0 8 -16 36 -35 62 l-35 48 -37 -14 c-55 -19 -73 -17 -37 5 48 29 47
36 -6 61 -47 22 -48 24 -43 59 13 85 105 261 136 261 7 0 74 -5 149 -12 190
-16 202 -2 127 143 -50 96 -119 175 -174 200 -49 23 -64 23 -93 3z"/>
<path d="M1360 1660 c0 -13 7 -20 20 -20 13 0 20 7 20 20 0 13 -7 20 -20 20
-13 0 -20 -7 -20 -20z"/>
<path d="M1460 1660 c0 -13 7 -20 20 -20 13 0 20 7 20 20 0 13 -7 20 -20 20
-13 0 -20 -7 -20 -20z"/>
<path d="M1390 1558 c0 -11 68 -10 74 1 3 5 -12 8 -34 7 -22 0 -40 -4 -40 -8z"/>
<path d="M1884 1141 c-18 -11 -40 -32 -49 -48 -16 -28 -20 -29 -74 -26 -44 3
-63 0 -89 -16 -36 -23 -72 -76 -72 -106 0 -12 -19 -36 -45 -58 -25 -21 -45
-45 -45 -53 0 -8 -21 -24 -47 -35 -27 -11 -57 -29 -69 -40 -20 -19 -21 -19
-59 1 -48 25 -69 25 -121 1 -50 -23 -61 -38 -40 -54 14 -11 10 -12 -25 -12
-34 0 -46 -6 -71 -34 -25 -28 -29 -40 -26 -78 3 -41 2 -43 -11 -24 -13 20 -21
21 -210 20 -108 0 -232 -4 -276 -9 -44 -5 -179 -16 -300 -24 -121 -8 -227 -16
-235 -16 -8 -1 -2 -6 15 -11 17 -5 217 -14 445 -19 820 -21 893 -24 898 -37 3
-10 -52 -13 -250 -14 -164 -1 -232 -5 -193 -9 33 -4 155 -8 270 -9 155 -1 220
-5 250 -16 22 -8 56 -14 75 -14 41 -1 109 28 139 58 l21 21 31 -34 c38 -44
118 -83 185 -92 66 -8 148 15 206 59 l43 33 23 -28 c42 -50 133 -46 168 7 12
19 21 21 64 17 46 -4 52 -2 85 31 29 29 35 42 35 79 0 24 -7 54 -16 67 -21 29
-77 53 -107 46 -19 -5 -25 1 -41 40 -13 32 -15 49 -8 58 6 7 16 33 22 59 24
93 -27 199 -114 239 -49 22 -133 25 -179 5 -33 -13 -97 -70 -97 -86 0 -4 24
-19 53 -34 29 -14 64 -38 78 -53 l24 -27 -30 19 c-64 41 -93 50 -167 53 -65 4
-85 0 -131 -21 -59 -27 -117 -80 -143 -128 -9 -17 -22 -59 -29 -93 l-13 -61
-1 52 c-2 107 66 216 163 263 23 11 70 23 104 26 54 6 65 11 87 39 13 18 41
43 61 55 l36 23 -30 30 c-40 40 -120 49 -168 18z"/>
<path d="M1117 1019 c-19 -11 -22 -6 110 -163 21 -25 26 -27 39 -15 12 13 6
24 -47 89 -82 102 -81 101 -102 89z"/>
<path d="M730 955 c-31 -33 -67 -39 -120 -19 -93 33 -222 15 -317 -44 -48 -30
-58 -46 -39 -61 9 -7 23 -3 50 15 87 60 201 79 286 49 83 -29 132 -16 156 42
19 44 14 50 -16 18z"/>
<path d="M712 765 c-12 -25 -22 -56 -22 -70 0 -49 60 -74 93 -37 8 9 24 38 35
63 l20 46 -44 21 c-25 12 -48 22 -52 22 -5 0 -18 -20 -30 -45z"/>
<path d="M2407 782 c-24 -27 -21 -59 8 -78 23 -15 27 -15 50 0 30 20 33 56 7
79 -24 22 -45 21 -65 -1z"/>
<path d="M2512 711 c-21 -13 -10 -46 16 -49 27 -4 40 22 22 43 -14 17 -20 18
-38 6z"/>
<path d="M870 630 c37 -12 160 -12 160 0 0 6 -37 10 -92 9 -62 -1 -85 -4 -68
-9z"/>
<path d="M605 440 c8 -13 155 -13 175 0 10 7 -16 10 -83 10 -63 0 -96 -4 -92
-10z"/>
</g>
</svg>
