<?xml version="1.0" standalone="no"?>
<!DOCTYPE svg PUBLIC "-//W3C//DTD SVG 20010904//EN"
 "http://www.w3.org/TR/2001/REC-SVG-20010904/DTD/svg10.dtd">
<svg version="1.0" xmlns="http://www.w3.org/2000/svg"
 width="256.000000pt" height="256.000000pt" viewBox="0 0 256.000000 256.000000"
 preserveAspectRatio="xMidYMid meet">

<g transform="translate(0.000000,256.000000) scale(0.100000,-0.100000)"
fill="#000000" stroke="none">
<path d="M1211 2369 c-6 -18 -11 -43 -11 -56 0 -32 -16 -21 -23 17 -11 54 -37
32 -52 -45 -8 -40 -8 -40 -17 -12 -17 49 -39 27 -54 -58 -4 -22 -9 -32 -11
-22 -11 43 -43 -5 -43 -65 0 -27 3 -30 23 -24 12 4 52 12 90 18 59 9 67 13 67
32 -1 20 -2 20 -14 4 -7 -10 -18 -18 -25 -18 -19 0 -12 28 11 44 29 21 58 4
58 -33 0 -38 -14 -47 -80 -56 -79 -10 -130 -26 -130 -41 0 -8 -13 -20 -30 -29
-52 -27 -54 -97 -4 -130 17 -11 39 -39 48 -62 20 -47 72 -98 122 -119 51 -21
150 -18 200 7 48 23 100 77 119 123 7 17 27 41 44 54 24 18 31 30 31 57 0 34
-28 75 -50 75 -5 0 -10 7 -10 15 0 20 -38 34 -129 49 -80 13 -98 26 -88 68 11
43 60 47 73 6 7 -24 -2 -36 -18 -20 -16 16 -28 15 -28 -2 0 -9 23 -17 73 -24
41 -6 81 -14 90 -18 14 -5 17 0 17 27 0 49 -10 79 -26 79 -8 0 -14 -8 -15 -17
-1 -10 -7 5 -14 33 -20 83 -38 97 -53 42 l-8 -33 -8 44 c-13 84 -37 100 -55
38 -9 -34 -13 -30 -27 37 -11 50 -29 56 -43 15z m-1 -329 l20 -20 22 20 c35
32 90 27 123 -12 34 -40 28 -81 -15 -120 -22 -21 -30 -37 -30 -63 0 -24 -9
-44 -29 -67 -24 -27 -36 -33 -71 -33 -55 0 -100 46 -100 102 0 29 -7 42 -31
62 -64 54 -27 151 57 151 21 0 42 -8 54 -20z"/>
<path d="M1121 1992 c-13 -24 4 -52 33 -52 26 0 40 23 31 51 -8 24 -51 25 -64
1z"/>
<path d="M1279 1994 c-17 -21 0 -49 31 -49 31 0 48 28 31 49 -8 9 -21 16 -31
16 -10 0 -23 -7 -31 -16z"/>
<path d="M1176 1833 c-24 -24 44 -48 91 -32 46 15 42 31 -6 23 -21 -3 -47 -1
-58 5 -11 5 -23 7 -27 4z"/>
<path d="M14 2345 c-9 -14 -15 -27 -13 -29 2 -2 85 -54 183 -116 l179 -113 19
23 c10 12 18 25 18 29 0 5 -338 220 -361 229 -4 2 -15 -8 -25 -23z"/>
<path d="M420 2091 l-19 -28 124 -78 c69 -42 127 -80 129 -84 3 -4 -8 -43 -24
-86 -15 -44 -40 -139 -55 -212 -27 -126 -27 -133 -11 -158 22 -34 63 -50 93
-36 12 6 53 33 92 61 67 49 199 130 212 130 3 0 9 -39 13 -87 4 -49 10 -112
13 -140 l6 -52 31 21 c56 39 187 171 252 254 35 45 64 84 64 88 0 3 -12 1 -27
-5 -16 -6 -53 -11 -84 -11 -71 0 -140 29 -195 83 l-40 39 -44 -15 c-24 -8 -75
-33 -113 -56 -38 -22 -71 -38 -73 -36 -4 4 24 106 33 120 2 4 20 -2 38 -13 32
-20 36 -20 65 -5 16 8 30 18 30 20 0 3 -18 16 -40 30 -34 22 -40 30 -40 61 0
66 -67 103 -133 73 -21 -10 -38 -2 -150 69 l-127 81 -20 -28z"/>
<path d="M1451 1723 c-94 -157 -266 -352 -389 -441 -64 -45 -64 -45 -60 -90
l3 -44 -177 -127 c-98 -69 -178 -132 -178 -138 0 -7 25 -27 55 -44 31 -17 54
-33 52 -35 -2 -2 -28 1 -58 7 -30 6 -61 11 -69 12 -11 2 -17 -24 -27 -122 -11
-102 -17 -126 -34 -140 -24 -20 -17 -49 15 -56 11 -2 78 -9 148 -16 102 -9
131 -9 143 1 19 16 19 25 0 43 -12 13 -13 28 -4 98 5 45 12 86 14 90 3 4 82
62 175 129 l171 121 172 -122 c95 -67 173 -123 175 -124 1 -1 7 -41 13 -88 9
-75 8 -89 -5 -103 -20 -19 -20 -28 -1 -44 12 -10 41 -10 143 -1 70 7 137 14
148 16 31 7 39 36 16 56 -16 13 -22 38 -33 142 -7 70 -16 127 -20 127 -4 0
-18 -4 -31 -9 -13 -4 -43 -11 -68 -15 l-45 -7 63 40 c34 22 62 42 62 45 0 2
-62 48 -137 102 -170 120 -161 111 -131 123 15 6 85 83 167 185 159 198 164
211 109 267 -74 73 -263 200 -318 213 -22 5 -29 -1 -59 -51z m132 -175 c42
-29 77 -56 77 -61 0 -11 -184 -237 -189 -232 -6 6 22 345 28 345 3 0 41 -24
84 -52z"/>
<path d="M1510 1400 c0 -46 11 -51 35 -14 16 24 16 26 -2 40 -28 21 -33 17
-33 -26z"/>
<path d="M1734 1265 c-9 -14 -15 -27 -13 -29 2 -2 62 -41 133 -86 99 -63 131
-78 138 -68 29 43 30 41 -99 123 -69 44 -130 81 -134 83 -4 2 -15 -8 -25 -23z"/>
<path d="M2034 1075 c-9 -14 -15 -27 -13 -29 2 -2 85 -54 183 -116 l180 -113
18 23 c18 23 18 24 1 40 -19 18 -338 220 -347 220 -3 0 -13 -11 -22 -25z"/>
<path d="M1220 917 c0 -7 7 -38 16 -68 47 -159 129 -236 261 -247 l63 -5 0 37
c0 35 -1 36 -40 36 -48 0 -105 22 -139 53 -23 22 -81 131 -81 154 0 10 -59 53
-74 53 -3 0 -6 -6 -6 -13z"/>
<path d="M1897 692 c-4 -5 -4 -23 -1 -38 l6 -29 126 -1 c190 0 339 -43 451
-128 19 -14 38 -26 42 -26 11 0 39 30 39 40 0 35 -169 130 -287 161 -90 24
-365 39 -376 21z"/>
<path d="M612 364 c-14 -123 -8 -146 46 -177 32 -19 36 -19 68 -3 46 21 60 58
69 173 l7 92 -33 5 c-19 3 -59 8 -90 11 l-56 6 -11 -107z"/>
<path d="M1732 460 c-34 -4 -65 -10 -69 -13 -10 -11 16 -210 31 -233 8 -11 28
-26 44 -33 25 -11 35 -10 61 3 65 34 68 50 44 239 -6 53 1 50 -111 37z"/>
</g>
</svg>
